<svg width="600" height="600" viewBox="0 0 600 600" fill="none" xmlns="http://www.w3.org/2000/svg">
  <path
    d="M285.904 143.733L282.304 146.333C265.304 158.733 260.604 175.933 265.104 196.433C268.504 211.933 271.804 227.333 271.004 243.133C270.904 245.033 270.804 246.933 270.604 248.833C270.304 251.333 270.004 253.833 269.604 256.333C261.804 243.233 249.404 233.633 232.304 228.233C230.704 227.733 229.004 227.233 227.304 226.833C225.804 226.433 224.304 226.133 222.804 225.833C221.704 225.633 220.604 225.433 219.504 225.233C219.404 224.433 219.304 223.733 219.204 222.933C217.804 213.333 215.704 203.933 214.404 194.333C212.904 183.233 213.904 172.533 218.104 162.333C227.004 140.733 249.704 131.033 273.204 138.933C277.204 140.233 281.104 141.933 285.904 143.733Z"
    fill="#F9D153" />
  <path
    d="M271.504 313.033V402.533C271.504 407.533 266.404 410.833 261.804 408.933C258.704 407.633 255.804 406.233 253.004 404.633C223.204 388.033 215.504 360.233 216.504 327.433C216.704 319.933 217.404 312.233 218.404 304.333C218.604 302.833 217.404 301.533 216.004 301.533C200.904 301.533 189.304 301.333 177.704 301.533C163.104 301.833 148.504 303.633 134.004 302.633C116.204 301.433 102.204 298.033 91.5037 291.933C70.9037 280.333 62.3037 258.733 62.4037 223.433C62.4037 202.633 64.0037 187.533 42.2037 185.633C27.1037 184.333 18.3037 177.233 14.6037 166.333C12.9037 161.433 13.2037 155.133 16.8037 150.033C18.7037 147.333 46.1037 145.333 61.0037 139.033C70.9037 134.833 73.0037 116.233 92.7037 110.433C119.804 102.333 142.004 125.933 142.404 155.933C142.504 163.233 142.304 170.433 142.404 177.733C142.504 180.533 142.404 183.233 142.004 185.833C141.004 193.333 138.004 199.133 132.004 202.133C129.204 203.533 125.804 204.333 121.704 204.333H121.104C107.604 204.233 101.604 196.233 100.304 183.733C100.104 182.133 98.5037 159.833 97.3037 146.833C91.7037 154.333 88.5037 162.233 87.3037 170.133C86.1037 178.133 87.0037 185.933 89.5037 193.033C92.7037 202.033 113.304 224.833 119.804 231.133C129.204 231.133 156.204 236.433 172.604 237.333C186.504 238.133 200.904 238.233 214.404 240.933C215.904 241.233 217.404 241.533 218.904 241.933C220.604 242.333 222.204 242.833 223.904 243.333C242.904 249.333 256.104 260.533 263.604 275.933C265.704 280.133 267.304 284.633 268.504 289.433C270.604 296.833 271.504 304.633 271.504 313.033Z"
    fill="#F9D153" />
  <path
    d="M65.2037 399.033V291.633C69.4037 297.733 74.7037 302.633 81.2037 306.533C81.8037 306.833 82.3037 307.233 82.9037 307.533C92.4037 312.833 104.304 315.933 119.004 317.433C124.404 367.533 106.704 400.833 69.9037 403.533C67.4037 403.733 65.2037 401.633 65.2037 399.033Z"
    fill="#F9D153" />
  <path
    d="M483.397 241.492C477.597 228.592 470.597 219.092 461.397 211.692C441.297 195.692 413.297 195.692 392.897 212.092C371.897 228.892 361.497 258.992 366.997 286.992C377.997 342.992 433.997 363.192 471.897 324.792C479.797 316.792 487.097 308.092 495.097 300.092C504.297 290.892 514.797 284.492 526.797 281.592C552.197 275.592 575.397 291.692 582.997 320.892C584.197 325.692 585.097 330.592 586.397 336.392C584.297 335.892 582.997 335.692 581.897 335.292C559.797 326.692 540.997 333.892 525.197 352.692C513.097 366.892 500.997 380.892 486.097 391.092C427.597 431.092 350.397 403.592 321.997 331.492C301.797 280.092 307.197 231.292 335.997 185.892C337.397 183.592 338.097 179.992 337.997 177.092C337.397 159.192 335.697 124.892 335.797 121.792C336.397 108.192 339.597 105.692 349.797 112.392C362.197 120.592 373.797 130.292 385.797 139.192C387.597 140.492 390.497 141.492 392.397 140.792C414.097 129.192 439.597 130.692 462.497 140.792C464.397 141.592 467.297 140.492 469.097 139.192C481.297 130.292 492.997 120.292 505.597 112.192C515.597 105.692 518.297 108.292 519.097 121.692C521.497 160.292 514.097 195.792 494.197 227.192C490.997 231.892 487.397 236.092 483.397 241.492Z"
    fill="#9CD8E5" />
  <path
    d="M48.15 454.416H55.05L58.55 473.416L62.35 454.416H68.95L61.85 483.916H55.15L48.15 454.416Z"
    fill="white" />
  <path
    d="M71.35 483.816V454.316H88.15V461.416H78.15V465.316H86.65V472.116H78.15V476.716H88.55V483.916H71.35V483.816Z"
    fill="white" />
  <path d="M96.25 483.816V462.116H90.25V454.316H109.05V462.116H103.05V483.816H96.25Z" fill="white" />
  <path
    d="M111.35 483.816V454.316H128.15V461.416H118.15V465.316H126.65V472.116H118.15V476.716H128.55V483.916H111.35V483.816Z"
    fill="white" />
  <path
    d="M131.85 483.816V454.316H141.85C144.95 454.316 147.25 455.016 148.55 456.316C149.85 457.616 150.55 459.816 150.55 462.816C150.55 464.616 150.25 466.116 149.75 467.316C149.15 468.516 148.35 469.416 147.15 470.116C148.35 470.416 149.15 471.116 149.75 472.216C150.25 473.216 150.55 474.716 150.65 476.716L150.75 480.816V480.916C150.75 482.116 150.95 482.716 151.35 482.716V483.816H144.55C144.45 483.116 144.35 482.516 144.25 481.916C144.15 481.316 144.15 481.016 144.15 480.716V477.816C144.15 476.316 143.95 475.216 143.55 474.616C143.15 474.016 142.35 473.716 141.35 473.716H138.45V483.916H131.85V483.816ZM138.45 467.016H141.55C142.65 467.016 143.35 466.816 143.75 466.416C144.15 466.016 144.35 465.316 144.35 464.316C144.35 463.316 144.15 462.516 143.75 462.116C143.35 461.716 142.55 461.516 141.35 461.516H138.45V467.016Z"
    fill="white" />
  <path d="M154.35 483.816V454.316H161.25V483.816H154.35Z" fill="white" />
  <path
    d="M165.45 483.816V454.316H171.85L177.75 468.016C177.95 468.416 178.15 468.916 178.35 469.616C178.55 470.316 178.75 471.216 178.95 472.216C178.85 471.716 178.85 471.116 178.85 470.516C178.85 469.916 178.85 469.116 178.85 468.216V454.316H185.25V483.816H178.75L172.85 470.216C172.65 469.816 172.45 469.216 172.25 468.516C172.05 467.816 171.85 466.916 171.65 466.016C171.75 466.516 171.75 467.116 171.75 467.616C171.75 468.216 171.75 469.016 171.75 470.016V483.816H165.45Z"
    fill="white" />
  <path
    d="M187.25 483.816L194.65 454.316H201.45L208.85 483.816H202.15L201.35 479.916H194.65L193.85 483.816H187.25ZM195.95 473.816H200.15L198.05 463.616L195.95 473.816Z"
    fill="white" />
  <path
    d="M210.85 483.816V454.316H220.85C223.95 454.316 226.25 455.016 227.55 456.316C228.85 457.616 229.55 459.816 229.55 462.816C229.55 464.616 229.25 466.116 228.75 467.316C228.15 468.516 227.35 469.416 226.15 470.116C227.35 470.416 228.15 471.116 228.75 472.216C229.25 473.216 229.55 474.716 229.65 476.716L229.75 480.816V480.916C229.75 482.116 229.95 482.716 230.35 482.716V483.816H223.55C223.45 483.116 223.35 482.516 223.25 481.916C223.15 481.316 223.15 481.016 223.15 480.716V477.816C223.15 476.316 222.95 475.216 222.55 474.616C222.15 474.016 221.35 473.716 220.35 473.716H217.45V483.916H210.85V483.816ZM217.55 467.016H220.65C221.75 467.016 222.45 466.816 222.85 466.416C223.25 466.016 223.45 465.316 223.45 464.316C223.45 463.316 223.25 462.516 222.85 462.116C222.45 461.716 221.65 461.516 220.45 461.516H217.55V467.016Z"
    fill="white" />
  <path d="M233.35 483.816V454.316H240.25V483.816H233.35Z" fill="white" />
  <path
    d="M242.45 483.816L249.85 454.316H256.65L264.05 483.816H257.35L256.55 479.916H249.85L249.05 483.816H242.45ZM251.05 473.816H255.25L253.15 463.616L251.05 473.816Z"
    fill="white" />
  <path
    d="M266.35 491.216V487.416C267.35 487.216 268.05 486.816 268.55 486.216C269.05 485.616 269.25 484.716 269.25 483.616H266.35V475.016H272.55V483.716C272.55 485.916 272.05 487.616 270.95 488.916C269.85 490.216 268.25 490.916 266.35 491.216Z"
    fill="white" />
  <path
    d="M285.05 474.716H291.65C291.85 475.816 292.15 476.516 292.65 477.016C293.15 477.516 293.85 477.716 294.75 477.716C295.55 477.716 296.15 477.516 296.65 477.116C297.15 476.716 297.35 476.216 297.35 475.516C297.35 474.416 296.45 473.616 294.55 472.916C294.15 472.816 293.85 472.716 293.65 472.616C292.15 472.016 290.85 471.516 289.95 471.116C289.05 470.616 288.35 470.216 287.95 469.816C287.15 469.016 286.55 468.016 286.15 466.916C285.75 465.816 285.55 464.516 285.55 463.016C285.55 460.116 286.35 457.816 287.95 456.116C289.55 454.416 291.65 453.616 294.45 453.616C297.15 453.616 299.25 454.416 300.85 456.016C302.35 457.616 303.25 459.916 303.45 462.916H297.05C296.95 462.016 296.65 461.416 296.25 461.016C295.85 460.616 295.15 460.416 294.35 460.416C293.65 460.416 293.05 460.616 292.75 460.916C292.35 461.216 292.25 461.716 292.25 462.416C292.25 463.416 293.15 464.216 295.05 464.816C295.25 464.916 295.35 464.916 295.45 464.916C295.75 465.016 296.15 465.116 296.65 465.316C299.05 466.216 300.65 467.016 301.45 467.716C302.35 468.616 303.05 469.616 303.45 470.716C303.85 471.816 304.05 473.116 304.05 474.616C304.05 477.916 303.25 480.416 301.65 482.116C300.05 483.816 297.75 484.716 294.65 484.716C291.85 484.716 289.65 483.816 288.05 482.116C286.15 480.316 285.25 477.816 285.05 474.716Z"
    fill="white" />
  <path
    d="M306.95 483.816V454.316H315.55C317.45 454.316 318.95 454.516 320.05 454.816C321.15 455.116 322.15 455.616 322.85 456.316C323.85 457.216 324.55 458.416 325.05 459.716C325.55 461.116 325.75 462.716 325.75 464.516C325.75 467.816 325.05 470.316 323.65 472.116C322.25 473.916 320.25 474.716 317.65 474.716H313.65V483.716H306.95V483.816ZM313.75 467.616H315.95C317.35 467.616 318.25 467.416 318.75 466.916C319.25 466.516 319.45 465.716 319.45 464.616C319.45 463.516 319.25 462.716 318.75 462.216C318.25 461.816 317.35 461.516 315.85 461.516H313.75V467.616Z"
    fill="white" />
  <path
    d="M324.95 483.816L332.35 454.316H339.15L346.55 483.816H339.85L339.05 479.916H332.35L331.55 483.816H324.95ZM333.65 473.816H337.85L335.75 463.516L333.65 473.816Z"
    fill="white" />
  <path
    d="M373.85 483.816L372.05 481.316C370.95 482.416 369.85 483.316 368.65 483.816C367.45 484.316 366.15 484.616 364.75 484.616C362.55 484.616 360.75 483.816 359.55 482.316C358.35 480.716 357.65 478.616 357.65 475.816C357.65 473.816 358.05 472.016 358.75 470.616C359.45 469.216 360.65 467.916 362.15 466.816C361.45 466.016 361.05 465.116 360.65 464.216C360.35 463.316 360.15 462.316 360.15 461.216C360.15 458.816 360.75 456.916 362.05 455.516C363.25 454.216 365.05 453.516 367.25 453.516C369.45 453.516 371.25 454.216 372.55 455.716C373.85 457.216 374.45 459.216 374.45 461.816C374.45 463.416 374.15 464.816 373.55 466.016C372.95 467.216 372.15 468.316 370.95 469.216L372.75 471.816C373.05 471.516 373.25 471.116 373.55 470.716C373.75 470.316 374.05 469.816 374.25 469.216H379.75C379.35 470.516 378.85 471.816 378.15 473.116C377.55 474.316 376.85 475.516 376.05 476.716L380.85 483.716H373.85V483.816ZM368.75 476.416L365.75 472.016C365.05 472.516 364.55 473.016 364.15 473.616C363.75 474.216 363.65 474.916 363.65 475.616C363.65 476.416 363.85 477.016 364.25 477.416C364.65 477.816 365.15 478.116 365.75 478.116C366.25 478.116 366.75 478.016 367.35 477.716C367.95 477.416 368.25 476.916 368.75 476.416ZM367.35 464.716C368.15 464.316 368.75 463.816 369.15 463.316C369.55 462.816 369.65 462.116 369.65 461.416C369.65 460.716 369.45 460.016 369.05 459.616C368.65 459.116 368.15 458.916 367.45 458.916C366.85 458.916 366.35 459.116 366.05 459.516C365.75 459.916 365.55 460.516 365.55 461.316C365.55 462.016 365.65 462.616 365.95 463.116C366.25 463.516 366.75 464.116 367.35 464.716Z"
    fill="white" />
  <path
    d="M392.85 483.816V454.316H401.45C403.35 454.316 404.85 454.516 405.95 454.816C407.05 455.116 408.05 455.616 408.75 456.316C409.75 457.216 410.45 458.416 410.95 459.716C411.45 461.116 411.65 462.716 411.65 464.516C411.65 467.816 410.95 470.316 409.55 472.116C408.15 473.916 406.15 474.716 403.55 474.716H399.55V483.716H392.85V483.816ZM399.55 467.616H401.75C403.15 467.616 404.05 467.416 404.55 466.916C405.05 466.516 405.25 465.716 405.25 464.616C405.25 463.516 405.05 462.716 404.55 462.216C404.05 461.816 403.15 461.516 401.65 461.516H399.45V467.616H399.55Z"
    fill="white" />
  <path
    d="M414.55 483.816V454.316H431.35V461.416H421.35V465.316H429.85V472.116H421.35V476.716H431.75V483.916H414.55V483.816Z"
    fill="white" />
  <path d="M439.35 483.816V462.116H433.35V454.316H452.15V462.116H446.15V483.816H439.35Z"
    fill="white" />
  <path
    d="M463.25 474.716H469.85C470.05 475.816 470.35 476.516 470.85 477.016C471.35 477.516 472.05 477.716 472.95 477.716C473.75 477.716 474.35 477.516 474.85 477.116C475.35 476.716 475.55 476.216 475.55 475.516C475.55 474.416 474.65 473.616 472.75 472.916C472.35 472.816 472.05 472.716 471.85 472.616C470.35 472.016 469.05 471.516 468.15 471.116C467.25 470.616 466.55 470.216 466.15 469.816C465.35 469.016 464.75 468.016 464.35 466.916C463.95 465.816 463.75 464.516 463.75 463.016C463.75 460.116 464.55 457.816 466.15 456.116C467.75 454.416 469.85 453.616 472.65 453.616C475.35 453.616 477.45 454.416 479.05 456.016C480.55 457.616 481.45 459.916 481.65 462.916H475.25C475.15 462.016 474.85 461.416 474.45 461.016C474.05 460.616 473.35 460.416 472.55 460.416C471.85 460.416 471.25 460.616 470.95 460.916C470.55 461.216 470.45 461.716 470.45 462.416C470.45 463.416 471.35 464.216 473.25 464.816C473.45 464.916 473.55 464.916 473.65 464.916C473.95 465.016 474.35 465.116 474.85 465.316C477.25 466.216 478.85 467.016 479.65 467.716C480.55 468.616 481.25 469.616 481.65 470.716C482.05 471.816 482.25 473.116 482.25 474.616C482.25 477.916 481.45 480.416 479.85 482.116C478.25 483.816 475.95 484.716 472.85 484.716C470.05 484.716 467.85 483.816 466.25 482.116C464.35 480.316 463.45 477.816 463.25 474.716Z"
    fill="white" />
  <path
    d="M485.15 483.816V454.316H491.85V464.316H498.15V454.316H504.85V483.816H498.15V472.416H491.85V483.816H485.15Z"
    fill="white" />
  <path
    d="M508.05 469.116C508.05 464.316 509.05 460.516 510.95 457.716C512.95 454.916 515.55 453.516 518.95 453.516C522.35 453.516 524.95 454.916 526.95 457.716C528.85 460.516 529.85 464.316 529.85 469.116C529.85 473.916 528.85 477.716 526.95 480.516C525.05 483.316 522.35 484.716 518.95 484.716C515.55 484.716 512.95 483.316 510.95 480.516C509.05 477.716 508.05 473.916 508.05 469.116ZM514.85 469.116C514.85 471.916 515.15 473.916 515.85 475.216C516.55 476.516 517.55 477.216 518.95 477.216C520.35 477.216 521.35 476.516 522.05 475.216C522.75 473.916 523.05 471.816 523.05 469.016C523.05 466.216 522.75 464.116 522.05 462.816C521.35 461.516 520.35 460.816 518.95 460.816C517.55 460.816 516.45 461.516 515.85 462.816C515.25 464.316 514.85 466.316 514.85 469.116Z"
    fill="white" />
  <path
    d="M533.05 483.816V454.316H541.65C543.55 454.316 545.05 454.516 546.15 454.816C547.25 455.116 548.25 455.616 548.95 456.316C549.95 457.216 550.65 458.416 551.15 459.716C551.65 461.116 551.85 462.716 551.85 464.516C551.85 467.816 551.15 470.316 549.75 472.116C548.35 473.916 546.35 474.716 543.75 474.716H539.75V483.716H533.05V483.816ZM539.85 467.616H542.05C543.45 467.616 544.35 467.416 544.85 466.916C545.35 466.516 545.55 465.716 545.55 464.616C545.55 463.516 545.35 462.716 544.85 462.216C544.35 461.816 543.45 461.516 541.95 461.516H539.75V467.616H539.85Z"
    fill="white" />
</svg>