<?xml version="1.0" encoding="UTF-8"?>
<svg id="Capa_2" xmlns="http://www.w3.org/2000/svg" version="1.1" viewBox="0 0 800 800">
  <!-- Generator: Adobe Illustrator 30.0.0, SVG Export Plug-In . SVG Version: 2.1.1 Build 123)  -->
  <defs>
    <style>
      .st0 {
        fill: #e6e6e6;
      }
    </style>
  </defs>
  <g>
    <path class="st0" d="M102.04,648.74c2.51-.07,4.67-.34,5.17-.87.66-.71-.12-3.55.06-5.74,1.68.07,3.19.28,3.44.06.25-.22.4-1.33.47-3.04,2.13-.07,4.45.35,4.77.07,1.33-1.14-.33-27.99,0-32.86.07-1.11-.21-2.79.02-4.16,2.53-.48,5.12-1.07,7.24-1.04,9.5.12,4.91,4.04,6.98,9.99,3.56.47,31.19.51,33.51-.18,1.25-.37,1.73-1.26,1.93-2.34,1.19-.07,2.03-.15,2.35-.25,2.72-.8,1.76-4.13,2.15-6.38,4.66-.09,11.35,1.99,12.91-2.07,2.33-.22,4.07-1.16,4.25-3.98.5-7.95-7.52-3.86-8.72-4.92-.5-.44,1.11-5.81-1.14-7.2-1.89-1.17-6.99-.07-7.47-.47-.51-.43.53-8.32.01-8.78-.41-.36-6.93.27-8.61,0v-16.98c0-2.42-8.28-1.35-8.61-1.63-.59-.5,1.22-6.85-1.14-8.29-1.8-1.1-7.45-.14-7.45-.48v-16.43c0-.39-8.59.39-8.59,0v-21.35c0-.12-1.72-1.65-1.84-1.65h-39.31c-1.51,0-1.99-3.23-1.95-5.32h26.35c.09,0,.97-.76,1.49-1.25h3.6c.13,0,1.84-1.53,1.84-1.65v-38.33c0-2.54-9.46-1.31-9.83-1.63-2.54-2.23,2.94-59.16-.53-63.6-1-1.27-4.61-1.23-7.78-1.06-1.52-.21-3.45-.16-5.25-.07-.3-.88,1.06-5.74-1.08-7.09-1.26-.79-4.12-.59-6.22-.45-.7-.21-1.6-.28-2.56-.29-.24-1.33.59-6.97.1-7.4-.31-.27-7.45.14-8.42-1.25-.9-1.31.38-5.94-.16-6.43-.35-.32-3.37.29-5.7,0-.02-.17-.06-.29-.12-.35-.14-.12-.69-.11-1.43-.06-.33-.15-.6-.35-.81-.61-1.77-2.24.18-12.07-.53-15.4-1.32.22-3.53.14-5.9.02-.02-.2-.05-.4-.08-.57-3.65.6-13.87-1.05-16.35.48-2.31,1.44-.64,6.8-1.16,7.29-.34.31-5.27.24-9.68.13.02-1.69-.26-6.05,0-6.27h-.01c.5-.46,6.49.98,8.07-1.03,1.42-1.81-.02-7.26.54-7.74.31-.27,7.45.15,8.43-1.25.69-1,.09-5.66.18-7.52,3.07.09,6.16-.04,9.25-.07.4.23.66.43.73.43v7.77h5.99v.65h4.03v14.88c2.85-.41,4.66-.43,5.81-.18v.64c.41-.06.79-.11,1.15-.15,1.83,1.42-1,4.87,1.09,7.53,1.13,1.42,4.45,1.14,6.52.99.51.23,1.13.36,1.8.42.06,1.35-.95,5.64,1.06,6.91.86.54,3.88.77,6.88.67,3.65.63,12.2.21,12.2-1.58v-21.35c0-.44,9.83.44,9.83,0v-32.86c17.32,2.57,6.61-10.01,8.72-15.72,1.18-3.19,7.83-1.24,8.48-1.8.63-.54-.64-14.8-.01-15.35.84-.74,9.72,1.88,9.81-2.67.08-3.97-2.58-4.01-5.15-3.98-.88-1.36-2.63-1.45-4.4-1.44-.83-1.93.16-5.78-.25-6.16-.25-.23-2.54-.09-4.69.03.07-.81.1-1.42-.05-1.56-.23-.21-2.07-.12-4.02,0,.04-2.69.57-7.96.16-8.32-.24-.22-2.53-.09-4.75,0,.02-.89-.02-1.53-.15-1.65-.2-.18-1.86-.13-3.71-.05v-35.54h-5.06v-2.11h-33.78c-.68,0,2.8,7.85-4.86,8.05-1.41-2.59.05-7.03-2.37-7.03h-4.37c-.14-1.22-.44-2.12-1.54-2.12h-20.64v15.52c-1.56.24-7.11-.35-7.51,0-.89.78,1.28,13.29-.54,15.59-1.68,2.14-8.84.48-9.47,1.03-.63.56.65,14.99.01,15.54-.54.46-6.6-1-8.22,1.03-2.1,2.62,2.81,13.47-.6,15.58-.85.53-8.71-2.6-8.71.58v30.49c0,.41-8.75-.9-8.75,1.67v31.6c0,.71-12.23-2.66-8.76,7.76,2.36-.02,4.73-.02,7.09-.02.05.16.09.31.14.48,9.26-.08,18.54.03,27.81.02-.09,2.43.12,4.89.01,7.31H1.9v107.55c0,.41,7.41-1.33,8.59,1.82,2.69,7.25-4.13,32.49-.54,37.06,1.07,1.35,16.38,1.59,16.98,1.04.08-.07.1-.54.1-1.2,3.39.09,6.4,0,6.65-.24.27-.25-.16-4.93.57-7.33.72.04,1.26.04,1.42-.1.14-.12.15-.67.12-1.41,2-.33,6,.5,6.48.07.38-.34-.18-4.06-.15-5.76,1.02-.16,1.83-.42,2.12-.83.02-.02.03-.08.04-.11,2.27-.06,5.73-.18,6.4-1.13.66-.93.2-11.6.18-14.08,4.01-2.36,7.11.98,7.37-3.29.13-2.22-.03-4.47-.01-6.7,3.74-.03,7.5-.12,11.22-.04-.13,3.54-.2,4.55,1.25,7.76.94,2.08-.18,4.16,5,1.11.3.11,1-.08,1.58-.09.16.39.43.62.98.56,1.57,3.04-3.52,12.21,8.71,9.52,1.83,2.91.54,4.7-2.02,5.76-4.49.42-9.15-.01-9.52-.34-.53-.47.54-8.31.01-8.78-.56-.5-15.08-.12-16.06.48-.22.14-.4.34-.56.57-2.89.13-5.34.33-5.72.56-2.9,1.79.14,11.61-1.49,14.73-.31.01-.55.05-.67.15-.06.05-.13.33-.19.75-1.91,1.08-5.61.06-6.25.58-.28.23-.55,4.82-1.08,6.76-.24.14-.45.31-.62.53-.09.13-.17.28-.24.45-1.5.25-5.09-.66-6.35.99-.89,1.18-.62,4.37-.49,6.29h-10.65v1.54h-6.92v15.52c0,.37,6.63-.95,8.22,1.04,2.88,3.65-2.39,13.74.41,17.17,1.4,1.71,8.16,0,8.89.64,1.59,1.41-1.73,12.53-1.08,14.72,1.43,4.75,6.56,1.61,8.57,2.41,5.55,2.22-.91,14.27,1.25,16.14.54.46,6.6-1.02,8.22,1.03,1.9,2.39-.56,13.09.68,14.37.55.57,6.72.79,7.25,1.34.97,1-1.19,6.78,1.29,8.28,1.73,1.05,5.93.14,6.34.47.56.46-.55,5.67-.09,7.09.4,1.23,3.58.51,4.53,1.69,1.39,1.72.08,6.34.55,6.75.43.38,4.58-.39,5.03-.01.52.45-.89,6.03.54,7.84,1.61,2.04,7.68.57,8.22,1.03.55.47-.65,7.05.06,7.71,1.02.93,13.48,1.33,14.81-.06.32-.34.31-1.18.23-2.2Z"/>
    <path class="st0" d="M71.48,220.71v-.04c1.26.37,2.89.56,4.73.65.33.86.73,1.44,1.22,1.58v-.04c6.95,2.03,24.18-1.19,32.38.16.1-2.91-.15-5.86,0-8.76.01-.36-.03-.74,0-1.1,5.3.15,10.67-.21,15.97,0,1.67.06,3.33,0,4.97.11.18,1.77-.1,3.57,0,5.34.29,5.73-1.63,38.54,0,39.92.31.26,2.69,0,4.43-.09.1,1.01.25,1.65.44,1.82.14.12.7.13,1.44.1-.21,1.74-.56,4.17.68,4.95.89.57,2.46.82,4.16.92.13.3.32.56.59.73,1.4.9,4.52,1,7.17.97-.06,1.96-.35,5.09-.14,6.14h4.47c-.01.65,0,1.21.07,1.54h7.38v-16.43c1.68-.26,8.19.37,8.61,0,.5-.44-.51-7.23-.01-7.68.41-.36,6.93.26,8.61,0v-15.33c13.13,1.65,6.18-2.72,9.8-6.06,2.32-2.15,8.32-1.33,8.63-1.61.49-.43-.46-5.09,0-5.48.38-.32,4.48.54,6.24-.47,2.09-1.2.39-5.53,1.67-7.27,1.32-1.79,5.3-.44,6.66-1.18,1.6-.88,1.13-7.22,1.43-7.5.53-.5,9.29.48,9.82,0,1.93-1.73-4.89-10.15,7.37-7.67v-21.35c0-.99-1.57-1.27-3.13-1.45v-1.31c0-1.01-1.63-1.29-3.24-1.47-.2-4-.27-12.35.22-12.75.45-.37,5.39.82,6.85-1.02,1.79-2.24-.71-4.18-.71-5.01v-17.53c0-1.13-1.29-1.57-3.13-1.64v-1.62c0-2.92-8.5-1.27-13.22-.64-.25-1.95-.76-4.17-2.02-4.9-.42-.25-1.06-.41-1.81-.51-.33-1.26-.83-2.37-1.66-2.85-1.94-1.13-7.85-.55-11.67-.37-.18-1.44-.46-2.88-1.04-3.2-.56-.31-1.57-.27-2.7-.2-.18-1.46-.47-2.93-1.06-3.25-.9-.49-2.91-.12-4.77-.12-.09-2.25.47-5.01.11-5.34-.15-.13-2.03-.18-3.99-.15.11-1.67.33-3.17.07-3.41-.31-.27-8.01-.18-8.6.15-.75.43-.43,3.39-2.23,4.38-1.81,1-6.37.79-6.65,1.05-.6.56.4,3.98-.04,4.41-.43.43-8.3-.45-8.78-.01-.46.41.79,5.03-.54,6.73-1.58,2.03-7.71.58-8.22,1.03-.51.45,1.14,5.88-1.16,7.29-1.93,1.18-7.12.07-7.6.47-.5.43.52,7.32.01,7.77-.52.47-9.49-.48-10.03,0-.51.45.52,7.32.01,7.77-.51.45-8.25-.46-8.76,0-.54.47.55,8.41.01,8.88-.52.47-9.5-.47-10.03,0-1.86,1.68,5.04,8.99-8.74,6.66,4.06,13.04-3.53,6.47-6.31,8.22-2.31,1.44-.68,6.86-1.19,7.3-.45.39-5.43-.86-6.97,1.03-1.7,2.1.27,11.57-.55,12.26-.32.27-7.62-.13-8.59,1.26-1.08,1.56,1.16,6.71-1.34,8.23-1.93,1.18-7.12.07-7.6.47-.69.59-.8,15.65,2.05,16.48Z"/>
    <path class="st0" d="M195.5,109.9c.02,1.88.1,3.46.26,3.61.35.33,3.73-.27,4.92,0h.01c.4.07.85.32,1.35.57,0,.1-.01.21-.03.31-.1.71-2.27,2.55-1.25,4.43,1.33.5,2.84.39,4.26.09-.59.89-1.32,2.11-.65,3.36,3.04,1.16,7.05-.99,8.61-1.09,1.78-.12,9.67-.36,14.12-.27-.04,1.38-.09,2.83-.06,3.48.04.73-.08,1.48,0,2.21l3.13-.2c-.01.57-.02,1.06,0,1.36.04.72-.08,1.46,0,2.18l14.79-.94.85,7.58c-.27,1.08.37,4.13,0,4.44-.47.4-8.15-.3-10.01,0v41.03c1.12.23,2.1.38,2.97.46v2.2c13.29,2.78,8-5.95,9.83-7.66.8-.76,12.36,1.05,14.81-.48,2.47-1.55-.18-7.35,2.3-8.9,3.67-2.3,20.12,1.37,20.96.62.61-.54-1.22-6.81,1.15-8.29,5.77-3.58,23.57,5.95,19.73-9.24h18.43v-20.26c0-1.65,5.85-1.41,6.84-2.66,1.19-1.49.13-5.18.53-5.57.46-.44,8.1.46,8.61,0,.89-.79-1.79-13.35,2.04-15.43,1.39-.76,4.82-.71,5.2-1.12.4-.43,1.43-9.92,1.29-11.26-.13-1.36-.48-2.25-.92-2.84.02-.43.02-.77,0-.95-.4-4.02-2.57-4.01-3.94-4.14.13-1.25.25-2.39,0-2.62-.09-.08-.51-.12-1.12-.13.15-1.64.44-3.49.12-3.78-.45-.4-8.07.18-11.21.15.09-1.83-.04-3.78-1.21-4.5.04-1.69-.17-3.37-1.26-4.03-1.58-.96-4.98-.38-6.64-.38-.18-1.17-.47-2.22-.96-2.5-.07-.04-.15-.07-.25-.1-.17-1.66-.45-3.61-1.17-4-.98-.55-5.02-.15-7.02-.15.11-2.64.29-5.52,0-5.76-.09-.08-.66-.14-1.5-.18.09-2.05.15-3.86-.07-4.05-.48-.43-13.04-.19-13.6.14-.98.57-.97,4.83-1.56,5.28-1.11.86-8.83-.58-11.6.28-1.71.53-1.59,2.88-2.9,3.19-4.78,1.1-14.13-.84-19.56-.07-2.74.57-1.72,8.59-2.08,8.92-.56.53-15.67-.54-16.28-.01-.45.39.32,7.24,0,8.87h-27.52c-.5,0,.5,8.87,0,8.87h-18.77c-.43,0,.63,6.86-.13,7.64-.69.71-7,.45-7.45,1.9-.24.8-.34,10.04.06,10.42.25.23,2.05,0,3.5-.06Z"/>
    <path class="st0" d="M574.47,768.46c0-.97-.1-2.2-.33-3.79-.14-.84-3.14-.77-5.56-.66v-10.95c-1.16.2-2.17.32-3.05.39v-4.71c-2.51.43-4.32.53-5.62.4.23-1.15.5-2.22-.08-2.74-.19-.17-1.32-.27-3-.32.13-1.54.88-3.22.11-3.92-.74-.67-15.71-.23-22.13-.06v-11.23c2.91-.07,5.86.06,8.76,0,.17-5.15-.26-10.38,0-15.54,2.91-.07,5.86.06,8.76,0-1.54-8.4,2.04-22.73.04-30.31-.14-.52-1.04-.93-2.36-1.25-.1-.79-.22-1.55-.4-2.24-.59-2.24-15.43-2.52-17.32-1.34-2.38,1.48-.54,7.75-1.14,8.29-1.43,1.3-33.85-1.61-36.12-.12-1.93,1.26,0,7.15-.73,7.78-1.95,1.75-48.49-1.34-55.28,0-3.87-.39-8.33.27-12.29,0-.06.72.05,1.46,0,2.19-.35,6.52.25,13.17,0,19.71-.84.15-1.35.08-1.23,1.1h-7.38c.36,1.63.51,2.92.52,3.95h-.18c.06.26.1.5.15.75-.47,5.52-6.41,1.64-7.85,2.95-.32.29.16,2.42.11,4.29-.02.11-.03.25-.02.42-.06.79-.23,1.5-.63,1.96-.9,1.04-3.54.64-4.12,1.23-.71.72.21,3.16-1.43,4.75-1.3,1.26-4.96,1.37-4.96,1.6v4.22s0,0,0,0v17.74c4.6-.63,6.56-.27,7.31.8-.18,1.49-.32,3.21.06,5.06-.15,1.4-.22,2.97.15,4.66.56,2.58,3.25,2.97,3.8,6.6.03.19.04.39.06.58-.11,4.35-.88,9.01-1.56,12.9h.98c-.25,1.7-.54,3.35-.81,4.88h86.31c.47,0-1.01-7.76,1.88-7.76h45.66c.37,0-.37-6.65,0-6.65h25.02c.42,0-1.06-5.91,1.17-7.28,4.27-2.62,9.34,3.93,7.62-7.61-.09-.54-1.34-.71-2.88-.73Z"/>
    <path class="st0" d="M704.31,675.39c-.06-.79-.14-1.35-.21-1.55-.59-1.58-2.39-1.77-4.27-1.8-.11-2.28.48-5.12.11-5.46-.27-.25-2.47-.28-5.47-.23.11-1.51.28-2.81.04-3.03-.65-.59-12.4.05-19.58.14-.01-1.55-.03-3.09-.02-4.64.03-3.4.98-23.53,0-24.4-.24-.2-2.42-.1-4.59,0-.06-1.6-.18-2.68-.39-2.86-.21-.18-1.91-.11-3.79-.04v-12.62h-4.82v-2.68h-17.2c1.75,12.25-3.12,5.47-7.45,8.15-2.25,1.39-.63,6.72-1.14,7.2-.48.43-8.12-.46-8.61-.01-.5.44.51,7.23.01,7.68-.51.47-9.32-.48-9.85,0-.44.39.31,7.14,0,8.76h-18.43c2.59,12.08-5.51,6.03-7.38,7.67-.44.39.33,7.15,0,8.78-4.22,1.12-13.5-2.07-16.47-.12-1.77,1.16-.25,7.78-.73,7.78h-17.2v47.1c0,.33-7.37-.33-7.37,0v15.33c.84.12,1.78.14,2.76.11v4.03c3.37.48,8.23-.56,11.4-.13.33.21.67.43,1.02.65.2.75-.17,1.97.37,2.48.23.21,4.29,2.73,5.19,3.31.03.02.07.03.11.05-.16,1.46-.28,2.91.2,3.58.31.43,1.74.59,2.93.8-.16,1.44-.26,2.85.22,3.52.2.28.87.44,1.65.59-.14,1.39-.33,2.68-.06,2.91.24.21,1.88.08,3.41-.02-.07,1.84-.55,4.11-.17,4.44.21.19,1.49.11,2.85.02.11,1.37.59,2.64,2.07,3.08.23.07.68.12,1.25.17-.08,1.8.18,3.76,2.13,4.34,1.62.47,13.1.48,14.67,0,3.32-1,1.07-5.82,3.2-7.14,2.04-1.26,8.33,0,8.85-.47.52-.47-1.14-5.85,1.16-7.29,2.47-1.55,14.28.26,15.09-.47.51-.45-.52-7.32-.01-7.77.51-.45,8.27.46,8.76,0,.48-.44-.5-6.23,0-6.66.61-.56,15.38.52,17.35-1.25.61-.54.37-5.69,1.58-6.37,1.52-.84,6.6.86,8.05-1.17,1.3-1.82-.43-6.03,1.71-7.36,1.89-1.18,7.13-.07,7.6-.47.47-.41-.5-6.24-.01-6.66.5-.45,8.27.46,8.76,0,.51-.45-.52-7.32-.01-7.77.51-.45,8.27.46,8.76,0,.51-.45-.52-7.32-.01-7.77.51-.45,8.27.46,8.76,0,.54-.48-.89-6.01.54-7.84,1.61-2.04,7.68-.57,8.22-1.03.56-.47.24-12.58-.18-13.72-.7-1.9-3.14-1.81-5.4-1.84Z"/>
    <path class="st0" d="M798.75,428.18h.01c-2.4-.03-4.82-.02-7.23,0v-.34s0-.01,0-.01c-2.17-.02-4.36,0-6.54,0,.01-2.09-.66-5.8,1.17-6.94,2.03-1.28,8.29,0,8.84-.47.66-.58.32-15.28-1.17-16.16-1.98-1.18-6.76.4-8.3-1.51-2-2.48.32-18.55-.47-22.74-.41-1.36-2.74-.32-3.81-.61-1.38-.38-2.78-1.84-5-1.11-.17-4.11.18-11.09-1.2-14.84-.57-1.56-2.86-.33-3.8-.69-.26-.09-1.28-2.11-2.5-2.22.5-3.83-.36-8.28,0-12.2h-8.76c-.01-.8-.43-.97-1.25-1.1-.19-1.78.28-3.8,0-5.54,1.59-1.67,1.85-5.13,1.26-7.03-.38-1.23-2.36-.59-2.51-.73-.93-.83.48-3.59-6.25-2.22-.11-2.33.68-7.38-.55-8.94-1.59-2.03-7.68-.57-8.22-1.03-.85-.73,1.24-12.25-.54-14.5-1.62-2.04-7.68-.57-8.22-1.03-.5-.43.52-7.32.01-7.77-.51-.45-8.27.46-8.76,0-.5-.45.51-7.35.01-7.77-.54-.46-6.62,1-8.24-1.06-.8-1.04.57-3.15.41-4.77-.57-5.58-7.28-1.97-8.45-3.01-.46-.4.79-5.04-.54-6.75-1.35-1.74-6.38-.33-7.69-2.06-2.6-3.41,3.74-6.93-8.04-5.62.66-2.76-.46-6.97,0-9.98h-11.28c.07.36.08.99.08,1.74h-5.17c.31,1.73-.43,9.5,0,9.87.4.35,7.95-.63,9.83,1.09-.24,4.34.34,8.81,0,13.14,0,.12-1.72,1.03-1.23,2.18.8.07,1.64-.06,2.46,0,1.97.18,5.51-.64,6.84,1.03,1.74,2.19-.31,13.58.53,14.32.29.26,4.75-.13,6.15,0l2.46,9.86c-1.35,3.06-2.68,1.59-2.46,4.38,2.86.07,5.74-.07,8.59,0,1.24,6.79-1.68,18.4-.05,24.47.35,1.32,8.2,2.49,9.88,4,.39,2.4.45,11.38,1.4,11.89,1.39.76,5.46-.27,5.97.14,1.35,1.12-1.74,30.2,1.28,32.8.42.36,4.15.09,6.54-.01.45.05,1.15.06,1.95.04.02.01.05.02.05.03v23c.95.14,3.45.1,6.2.02v.12c1.36.21,5.87.03,9.8-.08.44.76-.54,8.28-.04,8.72.23.2,3.85.11,6.41.04.02.1.05.18.09.21.11.09.97.12,2.11.12.01,2.35-.06,4.71,0,7.05-6.77-1.28-1.02-4.18-4.07-6.19-1.67-1.1-5.27-1.11-8.63-1.01-3.5-.63-9.07.04-11.86-.22v49.29c0,.39-8.59-.39-8.59,0v30.12c0,2.23-7.09,1.4-7.38,1.65-.38.32.25,5.23,0,6.58,2.98-.66,4.83-.61,5.96-.13.01.62,0,1.14-.06,1.47.49-.11.94-.19,1.37-.26,1.11,2.32-1.22,6.53.08,7.69.31.27,3.27.04,5.64-.07-.04.66.05,1.2.41,1.52.18.16,1.28.15,2.65.09-.15,1.61-.54,4.01.08,4.9.62.89,3.75,1.05,6.02,1.11.05.15.11.3.18.41.31.44,1.23.71,2.37.87-.02,2.07-.55,6.19-.16,6.52.74.62,4.15-.45,6.21.82,0,.43.05.74.15.82.17.14.48.19.87.21.66,1.1.85,2.9.13,5.83,1.72-.58,4.29-.25,6.81.2-.08.48-.17.98-.31,1.53,3.79-1.26,11.61,1.75,14.21,1.02,3.57-.99,1.43-7.11,2.05-7.69.55-.51,14.47.52,15.03.01,1.43-1.31-3.94-10.41,10-7.76l-1.25-98.69ZM687.14,269.02c.11-.47.16-.99.18-1.53,1.63.1,3.14.37,3.85,1.01,0,.08,0,.16,0,.24-1.02,0-2.32.08-4.02.27Z"/>
    <path class="st0" d="M327.18,68.6c1.95.29,10.55-.24,13.64-.14-.1,1.25-.14,2.38.12,2.66.13.13.55.14,1.06.11-.15,1.66-.34,3.55.01,3.92.35.36,2.73-.21,3.65.02.82.2,1.67.73,2.61.97.17.6.45,1.11.81,1.54-1.15,9.34,14.03,4.53,17.54,6.74.24.15.43.36.6.59-.1,1.35-.29,2.53-.04,2.79.05.05.31.06.67.06-.02,1.72-.39,3.44-.08,3.76.16.17,2.72-.08,3.68,0,3.89.27,4.19.84,4.38,2.84-1.6.15-8.36.83-8.67,1.09-.5.41.52,7.32.01,7.77-.52.47-9.49-.48-10.03,0-.51.45.52,7.32.01,7.77-.48.43-7.03-.44-7.51,0-1.71,1.49,3.94,11.29-5,8.87v17.74c.34,0,.67,0,1,0v3.22c5.94-.16,10.23,1.86,11.8-4.46l42.69.23c1.43.42,1.93,1.56,2.07,2.9-.03.52-.04,1.02-.01,1.45h.06c-.03,1.14-.16,2.29-.1,3.17l13.52-1.11c.33,1.52-.46,7.25.01,7.66.36.32,7.9.29,10.08,1.14,1.88.74,1.63,3.42,4.26,4.14,2.94.82,11.49-.49,12.54.32.71.55.29,5.01,2.14,5.41,1.64.36,6.59-.26,6.59-1.7v-1.97c.57-.27.95-.6.95-1v-22.64c4.33.49,4.31-1.04,4.02-3.42,1.92-.71.86-3.02.8-5.82,1.16-1.49,3.16-3.93,3.35-4.09,1.99-1.73,5.41-1.59,6.83-2.7s1.06-3.2,2.53-4.32c1.01-.77,3.52-.63,4.31-1.63.57-.72.68-1.9.65-3.07.29-.13.55-.28.72-.5.6-.75.7-2.01.66-3.23,2.75.02,8.46.64,10.06.24.9-.23,1.05-2.45,1.65-3.67.26-.09.45-.35.62-.71.1-.05.21-.08.33-.08h20.27v1.87c-4.72.03-13.38.17-15.56,1.59-.99.65-1.09,2.1-1.3,3.41-.14.06-.28.13-.39.2-.7.46-.94,1.34-1.1,2.28-2.68,1.11-8.99-.59-10.74.41-.62.35-.92,1.9-1.09,3.39-.13.04-.26.09-.36.15-.58.33-.87,1.71-1.04,3.11-1.97.06-6.02-.51-6.44-.14-.22.19-.16,1.65-.06,3.34-.63-.02-1.1,0-1.22.12-.31.27-.06,3.15.08,5.55-2.1,0-6.25-.33-7.54-.12.29.56.56,1.77.79,3.28-.82-.01-1.51,0-1.92.07.81,1.56,1.43,8.21,1.47,12.22-1.7.07-5.34.14-5.34,1.63v2.07c-.61.23-1.04.56-1.04,1.06v19.59h-21.48c-.6,0,2.73-6.5-5.7-7.7-2.26-.32-10.08.32-10.52-.11-1.43-1.35,2.27-8.68-10.07-4.37.45.54.72,1.51.88,2.66-.33.11-.68.22-1.03.35,1.72,2.08.79,10.56,1.23,10.93.53.46,6.49-.99,8.07,1.02,1.42,1.8,0,7.26.53,7.75.51.46,9.33-.47,9.83,0,.48.43-.49,6.16-.01,6.58.48.42,6.9-.43,7.38,0,.5.43-.51,7.23-.01,7.68.51.46,8.07-.49,8.59,0,.34.32.23,7.77,1.37,8.64,1.3.98,19.8-.56,23.75.06,1.44.22.24,3.23,1.23,4.49,2.19,2.8,23.19,1.35,24.04,2.14.48.43-.49,6.15-.01,6.58.53.48,10.56-.48,11.07-.01.51.47-1.1,5.86,1.14,7.2,1.62.97,4.75.06,6.69.64,1.63.49,1.62,2.51,2.27,2.85,1.65.89,5.24-.47,6.58,1.28,1.54,2-.14,9.35.53,9.94.5.44,8.1-.46,8.61,0,.53.47-.54,8.31-.01,8.78.53.47,9.32-.48,9.85,0,.5.44-.51,7.23-.01,7.68.48.42,6.9-.43,7.38,0,.5.43-.51,7.23-.01,7.68.5.44,8.12-.46,8.61,0,.56.5.18,12.29-.38,14.92-2.32.2-5.13-.35-5.49-.04-.1.09-.21.7-.25,1.56-1.26-.08-2.28-.19-2.48-.02-.38.33-.8,7.8,2.02,8.61,1.69.49,20.08.49,21.77,0,.75-.22,1.24-.67,1.57-1.26.8-.05,1.37-.11,1.61-.18,2.94-.86,2.11-5.16,1.92-7.4,6.47,0,20.81.86,21.48.23.14-.13.12-.63.06-1.31,2.02.01,3.4-.05,3.6-.23.42-.38-.57-4.21.23-6.18,1.63-.02,3.22.26,3.47.05.18-.15.2-.81.15-1.68,1.7-.03,3.39.27,3.65.05.57-.47-.45-5.83-.17-7.83.39-.22.73-.52.99-.94,1.71-.42,5.09-.35,4.23-5.08-1.15-6.26-15.32-2.98-16.32-3.91-.09-.09-.13-1.29-.13-2.42.8-.14,1.56-.64,2.07-1.95,1.62.26,3.65.27,4.2-4.04.85-6.63-1.47-12.36-9.91-10.43.01.6.04,1.18.07,1.75-1.05-.07-2.24.02-3.6.34.1,4.29.74,7.63-.83,9.71-1.04.24-2.27.4-3.82.45-8.5.27-4.08-4.18-5.75-6.54-.54-.77-4.13-.67-4.66-1.43-.75-1.09.47-3.87-.73-5.45-.88-1.16-4.22-.95-5.13-2.1-1.4-1.78-.09-6.28-.56-6.71-.47-.44-8.28.46-8.76.01-.54-.48.91-6.07-.54-7.84-1.52-1.88-5.83-.45-6.82-1.16-.8-.57-1.12-7.3-1.45-7.57-.64-.54-8.7.33-8.7-.06v-24.31c2.4-.89,5.79-1.26,7.07-.51.95.56.96,4.8,1.52,5.22.96.72,5.51-.33,6.02.12.46.4-.49,6.16-.01,6.58.69.62,11.39-.71,13.99.13,2.4.77,1.55,3.63,2.14,4.1,1.08.86,5.69-.56,7.06.29.94.58.94,4.77,1.52,5.22,1.01.78,7.89-.41,8.47.12.48.43-.49,6.15,0,6.58.63.57,11.27-.64,13.97.15,3.59,1.05,1.35,6.92,2,7.52.64.58,8.88-1.16,10.53,1.02,1.15,1.53.14,5.19.54,5.54.4.35,4.52-.48,6.44.76-1.64.25-2.35,1.03-2.58,2.1-7.18-.15-2.56,6.34-3.53,10.15-1.32.26-2.67.74-3.43,1.93-2.47.42-5.37,1.32-4.3,6.4.78,3.71,8.96,3.66,11.16,2.28.44-.28.72-.66.9-1.11,1.35-.12,2.54-.41,3.19-.82,1.88-1.17.99-4.21,1.05-6.03,1.02-.15,1.99-.31,2.55-.56.62-.28,1.1-.86,1.59-1.46,1.06-.15,2.07-.32,2.65-.57.51-.23.93-.65,1.33-1.13.43.16.9.4,1.43.76v11.41c4.81.71,6.44-.21,6.95-1.68,6.5.17,4.23-4.12,4.68-6.82,1.88-.12,3.76-.13,4.15-.41.24-.18.38-.83.52-1.62,1.88-.11,3.75-.13,4.14-.41.43-.31.56-2.08.84-3.5,4.12.11,9.9.73,10.58.14.11-.09.21-.89.34-1.93,2.33.12,4.24.16,4.62-.17.24-.2.47-3.66.87-5.84,1.48-.15,2.8-.6,3.05-2.11,3.02-.05,7.03,0,4.19-6.38,1.83.08,3.69.19,5.43.05-.15-.72-.24-1.52-.31-2.36,1.89.08,3.81.2,5.6.06-1.65-7.89,2.17-23.54.06-30.37-.48-1.57-8.34-1.43-8.78-1.83-.71-.67,1.11-5.77-1.22-7.23-2.46-1.54-14.29.25-15.09-.47-.4-.35.28-5.28,0-6.66h-17.52c-.85,0,3.27-11.05-10.01-7.76-.03-.37.01-.74,0-1.11-.08-1.56.46-5.91-.14-6.53-.51-.54-6.26-.24-7.27-3.08-.78-2.19,1.16-3.63,1.16-4.24v-20.51c-12.71,1.78-7.39-3.19-8.75-4.44-.22-.2-4.9.06-6.26,0-.14-1.43.31-6.39,0-6.66-.22-.2-4.91.04-6.26,0-.42,0-.84.02-1.25,0v-5.55c-2.47-.09-5.01.13-7.5,0-.41-.02-.83,0-1.25,0,.82-6.06-.1-5.62-6.25-6.65-.04-.37.04-.74,0-1.11-.14-1.32-1-7.43-1.31-7.7-.71-.63-8.15.44-8.7-.05-.54-.48.48-7.1,0-8.87-.85-3.13-5.91-2.19-8.75-2.22.1-2.21-.06-4.45,0-6.66h-7.51c-.08-.72.05-1.48,0-2.21-.17-2.17-2.1-4.04,0-6.64h-7.5c0-1.24-1.24-2.07-1.25-2.23-.13-1.26.28-5.3,0-5.55-.41-.35-5.98.25-7.51,0,.03-.37-.03-.74,0-1.11.28-4.77-.2-9.64,0-14.42h-10.01c-.96-10.72.7-22.42,0-33.27-.5-.44-9.47.79-9.87,1.23-.34.35-.31,2.34-.24,4.26-1.18.2-2.06.4-2.18.53-.25.26-.3,1.46-.27,2.85h-4.96c.3,1.56.54,3.13.72,4.7h-3.01c2.38,12.29.53,24.84,1.23,37.24.04.72-.06,1.46,0,2.19h7.38c.15,2.61.43,10.14-.15,14.69-1.52.23-3.62-.22-4.92-.05.68-3.14-2.39-2.04-2.5-2.22-1.79-2.5,4.04-5.77-8.75-4.43-.17-.85-1.22-1.03-1.25-1.11-.28-1.08.37-4.13,0-4.44-.43-.37-5.97.26-7.51,0-.08-.34-1.2-.82-1.25-1.11-.38-2,.28-4.55,0-6.66-2.5-.02-5.01.04-7.51,0-.42,0-.84.01-1.25,0v-6.66h-7.5c-.83-3.64-.94-14.72-1.42-15.37-.91-1.26-8.08-.69-9.31-2.29-1.19-1.54-.14-5.28-.54-5.62-.31-.28-8.22-1.1-8.76-1.11v-7.77c-4.85.79-15.1-2.27-16.25,2.78-.34,1.49-.42,2.59-.36,3.43-.27.35-.49.74-.61,1.24-1.58,6.99,2.23,5.69,2.46,6.02,1.27,1.89-2.72,9.06,6.14,8.76.29,1.57-.38,7.95-.03,8.69-2.3,0-7.2.49-7.6.13-.6-.53.61-12.78.01-13.31-.51-.45-8.25.46-8.76,0-.54-.47.54-6.36.04-8.1-.33-1.16-3.04-1.06-3.6-2.56-.77-2.06.56-5.46-.73-7.15-2.37-3.11-9.29,1.43-12.06-.39-1.82-1.19-.61-4.81-1.72-6.25-1.58-2.07-7.69-.58-8.2-1.04-.96-.85,2.91-9.08-5.6-7.81-4.07.61-5.33,8.16-4.85,12.18-.45,2.93-.24,5.84.46,6.83,1.14,1.63,9.31.95,9.66,1.25.53.44-.55,9.39-.01,9.87.5.44,8.1-.46,8.61,0,.35.31.53.78.61,1.36-.42,2.06-.91,4.29-.82,6.13-.98,4.98-1.4,10.08,7.58,7.85.02.12.03.23.05.35-3.39,5.11-17.47-.67-24.45.81v-6.66h-17.31c.08-1.63.15-3.09-.05-3.26-.02-.02-.09-.03-.15-.05.1-2.05.25-4.23,0-4.45-.51-.45-9.88.33-12.07.1.08-1.1.1-2.02-.08-2.19-.05-.04-.22-.07-.46-.09.13-1.84.4-4.21.09-4.49-.46-.41-10.41.31-12.53,0-.76,3.16-.41,4.55.47,5.15-1.69,8.04,4.74,3.15,6.97,5.94.06.07.1.16.15.25-.12,2.03-.4,3.93-.09,4.19.11.09.3.15.55.17-.12,2.03-.4,3.96-.09,4.22.86.74,6.6-1.17,8.44,1.69-.04.18-.08.36-.13.56l-57.55,1.11v15.52c.3.05.77.07,1.34.08v4.02ZM462.21,55.64c-.31-1.6.42-8.16.04-8.83,1.7-.05,4.65-.41,5-.11.33.29.05,4.83-.06,8.43l-4.98.5ZM592.54,127.72c-2,12.72,4.13,5.24,8.68,8.15h0c2.1,1.35.6,5.52,1.2,6.06.45.41,4.31-.5,5.56,1.06.82,1.03,1,6.88.37,10.31-4.84.48-13.85.11-14.58-1.93-2.03-5.56,4.17-8.14-7.69-7.05,1.41-3.2-1.04-11.86-1.26-15.62,2.62-.7,6.09-.93,7.72-.98Z"/>
    <path class="st0" d="M228.91,703.83h.04c.03-.24.93-2.15,1.84-3.93,1.55-.3,3.58-.07,5.01-.06,3.57.02,6.79,1.18,9.45,1.15,5.22-.05,11.14-2.16,16.83-1.15-.4-1.64-.52-2.92-.44-3.93.98.01,1.96.09,2.94.27-.37-1.49-.49-2.69-.44-3.65,2.08-.64,4.8.1,5.44-.44.23-.19.14-1.74.03-3.4,1.08.04,1.99.11,2.33-.17.26-.22.11-2.24-.02-4.16,1.53.15,3.34.25,4.07-.68.5-.63.66-1.67.77-2.77.62-.09,1.16-.29,1.48-.7.75-.96.74-2.84.92-4.44,1.08-.65,2.2-1.41,2.16-3.36,1.49-.89,3.06-1.98,1.52-6.2-1.4-3.8-15.81-.7-17.02-1.79-.5-.44.51-7.23.01-7.68-.51-.47-9.33.47-9.83,0-.6-.55,1.23-6.81-1.14-8.29-2.52-1.56-15.21.29-16.06-.47-.5-.44.51-7.23,0-7.68-.6-.54-6.86.71-8.43-.15-1.83-1-1.05-8.3-1.4-8.61-.45-.42-6.9.43-7.38.01-.5-.44.51-7.23.01-7.68-.51-.47-9.32.48-9.85,0-.5-.44.51-7.23.01-7.68s-8.12.46-8.61,0c-.38-.34,1.03-8.76-1.84-8.76h-22.72c-.17,0-.16,1.13-.09,2.57h-3.99c-.32,0-.03,3.58.09,6.19h-14.44c-.09.51-.08,1.54-.03,2.68h-4.4c-.16.86,0,3.15.08,5.03-1.26-.03-2.45-.06-3.04-.04-.41.01-.81,0-1.23,0-.09-2.18.13-4.39,0-6.57-.04-.72.06-1.46,0-2.19l-25.06-.02c-1.34-.13-.63,1.41-.74,2.21-.02.13-.03.29-.05.46h-4.26c-1.36-.13-.64,1.43-.75,2.23-.39,2.75.34,13.82.3,19.22-1.6-.06-3.15-.11-3.85,0v3.01c-2.02-.08-4.31-.19-5.22-.05v14.41c-2.65.08-5.42.41-5.89,2.9-.02.11-.03.2-.05.3-2.5.12-4.93.58-5.37,2.91-1.44,7.56,7.53,3.51,9.52,6,1.43,1.8,0,7.36.54,7.84.51.46,9.53-.47,10.03-.01.46.43-.79,5.03.54,6.73,1.58,2.03,7.69.57,8.22,1.03.47.4-.5,5.33,0,6.96.57,1.91,7.48,4.55,8.1,5.29.73.87.4,2.73.83,3.11,1.01.87,7.99-.38,8.59.17.51.45-.52,7.32,0,7.77.51.45,8.27-.46,8.76,0,.51.45-.52,7.32-.01,7.77.5.45,8.29-.45,8.76-.01.46.41-.79,5.03.54,6.73,1.58,2.03,7.71.58,8.22,1.03.51.45-1.14,5.86,1.16,7.29,2.05,1.28,8.3,0,8.84.47.48.43-.5,6.23,0,6.66.6.53,15.68-.54,16.28,0,.61.56-1.25,6.9,1.16,8.39,2.55,1.57,15.53-.28,16.35.47.52.47-1.14,5.87,1.16,7.29,1.15.71,7.6.91,8.66.33.8-.44,1.09-2.27,1.21-4.03.91-.04,1.63-.14,1.93-.3.67-.37.97-1.75,1.12-3.22,1.88.13,4.08-.08,4.67-2.82.06-.26.11-.78.15-1.47,1.28-.2,2.43-.87,2.83-2.73.5-2.35.45-24.51-.18-26.14-1.3-3.44-10.57.02-9.66-9.46Z"/>
    <path class="st0" d="M400.91,771.74c-1.67-.26-8.15.37-8.6,0-.12-.12-.17-.62-.18-1.36.11-2.26.24-4.68.23-6.35.15-3.15.26-6.14-.11-6.47-.31-.28-7.75-.57-8.4-1.26-.55-.6-.08-4.01-.13-5.36-.06-1.5-.04-3.01-.01-4.52,1.99.02,6.08.4,7.05-.14,1.25-.7,1.16-6.17,1.48-6.45.61-.54,8.7.33,8.7-.06v-16.63c0-.39,8.75.39,8.75,0v-22.17h-.18v-3.68h-35.01c-.56,0-7.16-1.74-7.45-2.12-.88-1.2-.2-6.64-2.38-6.64h-38.69c-.43,0,.43-7.67,0-7.67h-18.43c-.5,0,1.53-6.5-2.46-8.22-1.97-.85-9.54-1.06-11.14-.07-.88.55-1.18,1.76-1.24,3.1-.29.08-.54.17-.71.27-1.3.8-1.36,3.02-1.23,4.97-1.69-.1-3.83-.32-4.1-.08-.25.22.03,1.8.09,3.42-1.09-.07-2.01-.1-2.18.06-.29.25.1,2.17.1,3.99-1.62.37-3.77-.02-4.1.25-.3.26-.21,1.84-.09,3.5-1.03,0-1.91-.09-2.12.08-.34.29-.19,2.25-.04,4.13-1.88-.12-4.43-.36-5.54-.11-1.29.29-1.14,2.65-2.86,3.15-1.62.47-4.63-.26-5.29.29-.54.44.64,2.99-.75,3.23-4.68.85-11.51-1.42-16.36,1.18.11.92.13,1.84.11,2.76-1.03.2-2.01.52-2.93,1.01.66,5.77-1.3,11.42-1.54,17.02-.11,2.55,1.31,4.95,1.25,6.77-.36,10.69-2.62,22.41-1.19,33.2.15,1.12.57,3.83,1.94,3.83h23.77c2.9,0,1.4,7.76,1.88,7.76h26.27c.43,0-.43,7.76,0,7.76h26.27c.45,0,.2,7.76,1.25,7.76h41.28c.48,0-1.08,5.75.8,6.71,6.9,3.47,26-.6,34.23-.06v-22.17s-.01,0-.02,0v-4.6Z"/>
    <path class="st0" d="M784.14,541.73h-7.38v7.67h.04s-26.52.01-26.52.01c-1.1-4.19.44-14.12-.31-14.78-.33-.29-3.66-.02-6.13.09,0-.95-.04-1.59-.21-1.74-.18-.16-1.24-.14-2.55-.09.09-2.2.5-5.72.14-6.04-.33-.29-3.59-.02-6.05.09.03-.86.02-1.52-.13-1.64-.18-.16-1.32-.14-2.71-.08.06-1.96.35-5.1.14-6.14-3-.39-4.83-.4-5.95-.14,0-.56-.01-1.02-.07-1.32-12.02-1.58-5.11,3.1-7.9,6.65-1.48,1.87-6.38.63-6.84,1.02-.68.56,1.2,14.84-1.39,16.28-1.32.72-8.43-.22-8.43.15v15.33c0,.33-7.37-.33-7.37,0v17.53c-1.52.23-7.01-.34-7.38,0-.34.32.43,7.64-1.39,8.61-1.39.76-5.47-.27-5.99.14-.48.4.5,7.23.01,7.68-.51.47-9.32-.48-9.85,0-.53.47.54,8.31.01,8.78-.43.37-6.93-.28-8.61,0,.29,1.51-.43,7.29.01,7.67.16.14,2.5.23,4.7.39-.05,1.15-.04,2.04.12,2.18.14.12,1.88.2,3.77.32v14.64c.87.13,3.03.03,4.98-.05v2.84c.74.11,2.39.06,4.06-.01-.17,3.98-1.7,10.83-1.67,12.57.03,1.58,2.24,5.24,2.46,6.57.48,3.01-.34,6.72,0,9.86h5.11c-.05,1.09-.06,2.17.05,3.18h19.4c-.12,1.98-.26,4.19.05,4.45.44.37,4.16-.48,5.45.94-.05,1.2-.03,2.17.17,2.34.1.09.38.11.75.11.28,2.51-.35,4.98,5.84,4.59.19,2.32.73,4.17,8.39,3.11-2.82-10.9,7.45-6.64,8.76-7.76.5-.43-.51-7.34-.01-7.77.48-.43,7.03.44,7.51,0,.83-.72-1.2-11.16.54-13.39,1.9-2.42,9.71-.04,11.77-1.19,3.15-1.77-.92-13.07.13-16.86.51-1.83,6.3-1.55,6.3-1.84v-16.63c0-.39,8.75.39,8.75,0v-15.52c0-.33,7.5.33,7.5,0v-17.74c0-.33,7.5.33,7.5,0v-16.63c0-.33,7.5.33,7.5,0v-16.63h-7.08v-1.76Z"/>
  </g>
  <g>
    <path d="M760.4,432.36c.09,2.92-.06,5.86,0,8.76h16.5c1.35-.16.61-7.04.7-8.76-5.71-.07-11.5.19-17.2,0Z"/>
    <path d="M66.46,327.82c-1.89,1.17-6.99.07-7.47.47-.61.54.11,12.77,0,15.35,4.31.13,8.68-.19,13-.05,1.59.05,2.81,1.14,2.97,1.14,3.49.04,6.41-1.17,9.83-1.1v-15.33h-9.83v-7.67h17.2c.75,0-2.96-11.31,6.59-8.68,3.81,1.05,1.33,12.11,2,15.26h15.97v-15.35c-25.94,3.79-11.97-10.35-15.26-14.29-2.03-2.44-15.78-.21-16.68-1.04-1.4-1.3,3.87-10.27-9.82-7.68-1.15,4.1.06,30.67-1.22,31.78-.46.4-5.71-.41-6.15-.01-.5.44,1.1,5.81-1.14,7.2h0Z"/>
    <path d="M134.03,210.63c-4.37,2.72-10.63-4.06-8.68,7.05,3.31.13,6.58-.27,9.66,1.25.51,2.11.06,4.28.18,6.42,4.68-.64,1.24,4.25,3.04,6.59.88,1.13,3.44,1.56,4.31,1.06.75-.44,1.03-6.29,1.3-6.52,1.54-1.32,9.78,3.72,9.82-8.2,0-.83-1.03-6.87-1.32-7.12-1.87-1.56-11.5,3.72-8.54-9.92-12.61-2.64-6.54,7.39-9.76,9.38h-.01Z"/>
    <path d="M74.5,468.2c.01-.41,1.29-2.52,1.34-4.87.05-2.24-.74-9.98-2.49-11.07-2.2-1.38-23.06.35-24.13,1.63-1.47,1.79,2.09,11.19.7,14.32,2.44.06,4.92-.08,7.38,0,5.71.18,11.49-.13,17.2,0h0Z"/>
    <path d="M109.37,218.78c.01-.36-.03-.74,0-1.1.08-1.21-.25-5.26,0-5.48.49-.44,8.12.46,8.61.01.53-.47-.54-8.31-.01-8.78.69-.62,8.35.97,8.63-.63v-13.62c-11.74-1.87-5.79,4.05-7.39,5.48-.65.58-8.4-1.55-10.43,2.19-.94,1.74-.19,5.13-1.77,6.09-1.7,1.03-5.82.12-6.24.47-.59.49-.11,13.49.54,14.31,1.37,1.72,5.89.91,8.07,1.03v.02Z"/>
    <path d="M34.36,487.8c-.05.86.86,1.34.86,1.45,4.01-2.36,7.11.98,7.37-3.29-3.65-1.54-8-2.54-8.23,1.83h0Z"/>
    <path d="M83.36,483.42c.93,2.05-.18,4.11,4.91,1.1-1.58-.6-2.66-1.7-4.91-1.1Z"/>
    <path d="M50.41,415.67v20.26c0,4.2,6.88,2.31,7.38,2.73.98.82-2.48,7.88,3.08,8.79,10.48,1.73,5.45-7.66,6.74-8.79.39-.34,5.85.25,7.38,0v-24.1h-21.49c-.4,0-1.87,1.45-3.07,1.1h-.01Z"/>
    <path d="M110.6,460.28c.45-2.17.43-17.92-.18-19.56-1.18-3.2-7.83-1.23-8.43-1.79-.28-.26.34-3.37-.19-4.74-1.4-3.61-12.2-3.77-15.06-1.96-1.13.71-1.14,11.12-.56,12.58,1.04,2.61,4.63,1.17,5.77,1.97,1.6,1.14,1.06,9.32,1.44,9.67,1.8,1.68,11.45-4.32,8.59,6.57,3.56-.14,7.78,1.25,8.61-2.74h0Z"/>
    <path d="M98.85,488.32c2.29.41,1.24,9.49,10.52,6.45v-21.35c0-2.42-8.28-1.34-8.61-1.63-.4-.37,1.27-7.04-4.57-8.55-11.75-3.05-13,6.46-11.46,14.49.24,1.24,6.38.62,7.28,1.88,1.04,1.45-.54,9.07.18,9.71.93.83,5.44-1.2,6.66-.98h0Z"/>
    <path d="M28.31,444.95c-1.06,3.08,0,17.82,0,22.45,0,.34-5.69-.63-7.45.48-6.09,3.82,4.02,9.1,8.12,9.34.86.05,7.58-.85,7.85-1.11,1.47-1.34-2.29-15,2.09-16.21,5.55-1.54,7.9,2.35,7.89-6.2-.04-13.79-17.51-11.63-18.51-8.75h.01Z"/>
    <path d="M40.59,395.11c-.45-.37-4.51.41-4.94.01-1.18-1.06,3.27-6.67-5.52-6.67s-4.33,5.6-5.52,6.66c-.7.63-11.62-1.46-7.37,8.76h23.34c-.29-1.6.41-8.44,0-8.76h.01Z"/>
    <path d="M27.62,418.04c-1.27,1.62-.84,16.49.86,17.45.7.4,11.52.39,11.97.04,1.99-1.52,1.18-15.36,1.37-18.51-3.19.46-12.55-1.09-14.2,1.03h0Z"/>
    <path d="M57.7,401.09c.73,6.87,2.98,4.78,9.83,4.91v-16.43c-11.85-3.19-10.76,2.68-9.83,11.51h0Z"/>
    <path d="M96.61,407.26c-2.77.82-2.62,13.31-1.78,15.61,1.14,3.14,4.61,1.17,7.19.7-3.41-3.7,4.38-19.21-5.41-16.31Z"/>
    <path d="M83.58,391.83h-8.61v5.47c5.6.3,9.61.7,8.61-5.47Z"/>
    <path d="M93.4,400.58c-.44-.39-4.68-.13-5.61,1.05-2.18,2.78,1.54,7.25,5.61,5.53-.23-1.35.38-6.24,0-6.58h0Z"/>
    <path d="M57.87,312.49c2.97-1.83-.41-12.25,1.68-14.93,1.59-2.04,9.46,1.39,9.34-8.16-.03-2.21-2.77-7.81-4.95-8.74-2.27-.98-12.68-1.33-13.52,1.1-1.06,3.08,0,17.82,0,22.45,0,.39-8.17-.4-8.61,0-3.38,7.23,11.61,11.03,16.06,8.29h-.01Z"/>
    <path d="M51.64,345.83v-17.53c-15.09-2.85-9.63,6.45-11.05,7.67-1.06.91-8.02-2.63-7.49,4.94.45,6.42,12.99,4.61,18.54,4.91h0Z"/>
    <path d="M119.21,281.22c2.58,5.83-.36,16.43,1.4,21.19,1.16,3.15,12.79,1.1,13.28.65.53-.48.34-12.31-.1-13.49-1.14-3.02-5.91-1.1-7.06-1.93-.65-.47-.88-5.86-1.5-6.32-.81-.61-4.48.12-6.01-.12h0Z"/>
    <path d="M92.18,287.79c.44.39,8.02-.28,9.83,0v-23c-1.92.34-7.53-.6-8.47.12-1.95,1.47-2.28,22.07-1.37,22.88h0Z"/>
    <path d="M82.82,264.69c3.58-.91,1.32-8.08,1.99-8.68,1.64-1.49,12.63,3.44,9.83-4.36-4.68-.34-9.26.49-13.79,1.4-2.51.5-4.78,2.56-6.75,2.78-3.42.4-10.92-2.96-7.55,6.07.61,1.65,15.13,3.09,16.26,2.81h.01Z"/>
    <path d="M159.73,179.34c-.53.47.88,5.95-.53,7.75-1.25,1.61-5.29.54-6.91,1.51-2.48,1.48-.58,11.81-1.16,14.85,3.9-.68,17,1.69,18.26-1.82.49-1.34-.13-4.48.16-4.76.38-.36,6.93.26,8.61,0v-24.1c-1.67.25-8.22-.36-8.61,0-.44.42.95,4.77-1.14,6.1-1.98,1.26-8.15,0-8.68.47h0Z"/>
    <path d="M187.95,219.29c2.17-1.97,7.42-1.27,7.42-1.61v-24.1c-12.05-2.45-7.35,6.53-8.59,7.68-.48.43-8.12-.46-8.61-.01-.5.44.51,7.23.01,7.68-.41.36-6.93-.26-8.61,0v16.43h17.2c.35,0-.93-4.14,1.19-6.06h-.01Z"/>
    <path d="M143.82,181.04c2.82-1.65-1.14-5.26.46-7.22,2.13-2.63,12.63.3,15.53-1.52,1.54-.96,1.5-6.9,1.15-7.19-.41-.35-4.53.56-6.24-.47-1.94-1.18-.05-6.17-3.58-7.75-11.25-5.03-8,7.7-8.61,8.23-.46.4-5.57-.69-7.47.47-2.25,1.39-.64,6.74-1.14,7.2-.5.44-6.49-.99-8.07,1.02-.95,1.21-.95,5.5,0,6.72,1.18,1.52,16.17,1.55,17.94.53h.01Z"/>
    <path d="M169.57,242.88c1.78-1.51-2.35-15.59-4.89-17.06-1.24-.72-13.49,2.77-14.25,3.9-.78,1.16,5.51,25.31,13.08,20.35,2.22-1.44.65-6.79,1.13-7.21.43-.37,4.48.4,4.94.01h0Z"/>
    <path d="M169.56,149.77h25.79c-.33-1.74.46-9.46,0-9.86-.5-.44-8.14.44-8.61.01-1.24-1.14,3.46-10.13-8.59-7.68,2.76,10.77-7.3,6.56-8.61,7.67-.44.37.33,8.13,0,9.86h.01Z"/>
    <path d="M186.77,182.64c.85.68,8.59-1.6,8.59-2.74v-22.45h-8.61c.76,8.68-3.01,16.62.01,25.19h0Z"/>
    <path d="M206.43,188.12c-1.49,5.09-4.3,18.08,5.35,15.19,4.5-1.34.36-18.6-5.35-15.19Z"/>
    <path d="M466.2,46.88c1.77-.06,5.33-2.1,8.05-1.1.29,1.61-.41,8.41,0,8.76.49.44,5.94-1.09,6.82,1.77.69,2.29-3.08,15.66-.56,19.1,1.6,2.19,9.21.41,9.84,1.02.55.53-.56,12.63,0,13.15.47.44,7.59-.46,8.05,0,.45.43-.46,6.15,0,6.58.47.46,7.54-.49,8.03,0,.32.32.66,8.75,1.16,8.75h16.08c.57,0-.55,9.53.12,10.84.83.89,8.14.89,8.95,0,2.05-2.22-4.4-7.96,6.35-6.48,1.7,1,0,5.96.66,6.59.41.4,8.53-.29,10.35,0,1.6-13.5-2.61-7.92-10.69-9.84-1.12-.27-1.1-2.22-1.96-2.73-1.55-.92-4.2-.34-4.53-.63-.62-.54.48-8.23-.05-8.73-.4-.37-6.48.28-8.05,0-1.01-2.65.81-4.84,1.16-6.57.62-3.1-2.19-2.02-2.3-2.19,2.12,3.15-7.68,2.56-8.05,2.19-.36-.36.27-5.12,0-6.58-.15-.84-1.12-1.02-1.15-1.1-7.48,5.53-5.96.29-6.89-4.38-.07-.34-1.1-.81-1.15-1.1h-6.9v-6.57c-.39,0-.77.01-1.15,0-1.42-.06-5.01.39-5.62-.12-.43-.35-1-5.18-1.28-6.45-.76-3.59-.87-14.54-1.3-15.18-.83-1.25-7.41-.68-8.55-2.26-1.09-1.52-.13-5.22-.49-5.55-.28-.28-7.54-1.09-8.05-1.1-2.87-.01-8.69,2.24-12.64,1.1,1.18,1.89-2.54,9.06,5.74,8.76v.02Z"/>
    <path d="M676.88,218.78l1.23-23c-14.19,2.22-6.24-4.95-8.73-7.56-.66-.69-8.12-.98-8.4-1.25-.71-.68,1.01-5.72-1.21-7.16-1.9-1.25-14.47,2.05-16.05.64-.5-.44.5-7.26.01-7.68-2.67-2.29-7.82,5.66-8.61-7.67-.03-.36.01-.74,0-1.1h-15.97c-2.61,12.07,5.57,6.04,7.38,7.67.53.47-.88,5.95.53,7.75,1.58,2.02,7.54.56,8.07,1.02.49.42-.51,7.23-.01,7.68.6.54,15.39-.55,15.98,0,.53.48-.88,5.97.53,7.75,1.5,1.88,6.15.34,8.15,1.49,2.08,1.19.7,5.69,1.15,6.1.44.39,5.4-.81,6.84,1.02,4.78,6.06-6.98,4.9-7.92,7.35-2.17,5.65-1.2,16.7,8.44,13.55-1-8.2,1.16-4.66,7.37-5.48.33-.05.88-1.06,1.23-1.1h0Z"/>
    <path d="M573.69,100.48c-.53.49,1.05,5.96-1.19,7.21-2.18,1.44-16.67-5.46-14.84,7.63,1,7.23,10.87,2.18,16.48,3.93,3.19.99,1.08,5.15,2.71,5.39,6.69,1,4.95-.27,5.42-3.83.49-3.59,3.12,1.47,3.33,1.61.86.57,4.6,3.19,4.9,3.24,2.27.43,5.96-.67,7.84.49,2.24,1.38.63,6.72,1.14,7.2.76.71,11.19-1.28,12.98,1.02,1.73,2.21-.14,11.1.53,14.32,2.12-.16,5.76.55,7.45-.48,1.88-1.14,1.84-15.36-.05-16.54-3.82-2.38-5.39,2.14-6.18-6-2.04-.07-4.11.06-6.15,0v-6.58c-.4,0-.81.02-1.23,0-5.2-.33-8.08,1-7.37-5.47-.4-.02-.81,0-1.23,0-2.04-.04-4.11.04-6.15,0-.19-2.15.26-4.45,0-6.58-.04-.36.04-.74,0-1.1-11.97,2.19-8.48-4.14-9.87-5.44-.3-.28-8.27-.33-8.56-.05h.03Z"/>
    <path d="M530.7,56.69c.61.54,7.64-1.1,9.29,1.02,1.73,2.21-.14,11.11.53,14.32,2.84-.11,5.76.14,8.61,0,0-3.24,1.14-6.06,1.23-7.67.03-.36-.03-.74,0-1.1-5.21.77-2.99-8.05-3.73-8.72-1.6-1.45-5.32,3.21-6.09-5.52-.94-10.6.69-22.16,0-32.86-.49-.43-9.29.78-9.7,1.21-.56.6-.09,5.89-.14,7.55-.11,4.15-1.28,30.66,0,31.76Z"/>
    <path d="M557.72,90.63c1.87,1.63,9.98-4.42,7.37,7.67,1.92-.33,7.54.58,8.48-.13,2.93-2.22-2.99-11.41,8.73-8.65-.84-3.09-5.8-2.16-8.59-2.19-.04.72.06,1.46,0,2.18-9.73,1.02-6.75-3-7.38-8.76-.08-.72.05-1.47,0-2.19-2.87-.02-5.74.02-8.59,0,0,1.9-.49,11.63,0,12.05v.02Z"/>
    <path d="M557.73,78.58c0-2.73,1.23-5.81,1.23-6.57,0-1.21-1.21-2.03-1.23-2.19-2.71,2.5-5.22,2.02-8.59,2.19v6.58c2.86.02,5.75-.04,8.61,0h-.01Z"/>
    <path d="M374.75,85.2c-.33.33.21,2.5-.28,3.58-.85,1.93-5.5,2.08-3.46,7.33,5.66.4,3.71,1.41,4.91,6.57,4.61-.41,21.13.93,23.41-.48,1.69-1.05,1.75-14.56.61-16.02-.91-1.18-24.35-1.82-25.21-.98h.01Z"/>
    <path d="M288.85,87.23c1.77,1.86,14.19.56,17.44,1.42,2,.54,3.23,3.49,5.12,3.07,5.2-1.13,4.58-14.77,4.33-18.62-.41,0-.81.01-1.23,0-8.57-.27-17.24.2-25.8,0,.55,2.47-.8,13.14.14,14.13h0Z"/>
    <path d="M245.2,117.42c-.42.63-7.01-.65-7.43,0-1.59,2.37,4.32,12.63-7.42,9.4.03,1.03-.06,2.08,0,3.12l14.86-1.57,1.06,15.64c1.2-7.88,7.42-3.33,7.42-7.03v-32.05c-12.29-4-7.12,10.48-8.48,12.51v-.02Z"/>
    <path d="M342.47,73.54c1.11.28,2.29,1.16,3.68,1.1,6.5-2.7,21.87,2.53,17.05-9.18-.85-2.07-3.87-1.31-4.52-1.97-.94-.96.68-4.22-2.24-5.12-9.03-2.79-5.66,3.61-7.73,4.87-1.68,1.03-5.82.12-6.24.47-.44.36.31,8.11,0,9.86h0Z"/>
    <path d="M533.79,59.86c-.04-.72.06-1.46,0-2.19h-7.38c.04.72-.06,1.46,0,2.18h7.38Z"/>
    <path d="M572.34,256.13c.79.6.76,6.52,1.58,7.35.94.97,7.94,1.02,8.29,1.37,1.53,1.48-3.09,8.8,9.91,6.51,2.94-12.17-7.2-7.54-8.61-8.76-.46-.41.49-6.16.01-6.58-.49-.44-8.12.46-8.61,0-.5-.44.51-7.23.01-7.68-.5-.44-8.12.46-8.61,0-.5-.44.51-7.23.01-7.68-.5-.44-8.12.46-8.61,0-.53-.47.63-5.89-.06-6.52-.3-.28-7.75-.58-8.4-1.26-.86-.91.46-7.04-.13-7.56-.5-.44-8.12.46-8.61,0-.5-.44.51-7.23.01-7.68-.41-.36-6.93.26-8.61,0v-19.17c0-5.73-5.36-3.01-7.21-3.98-4.01-2.09,1.2-19.43-.7-21.83-2.98-3.76-18.9-.76-19.19.69-.28,1.38-.48,13.15.08,13.62.68.58,7.25-1.42,8.43,1.79.98,2.64-.55,14,.16,14.63.5.44,8.1-.46,8.61,0,.85.76-1.22,12.1.53,14.32,1.58,2.01,7.55.58,8.07,1.03.61.54-.45,13.01,0,15.33h17.2c.29,1.49-.41,7.3,0,7.67.51.47,9.33-.47,9.85,0,.48.43-.49,6.16-.01,6.58.48.42,6.9-.43,7.38,0,.49.43-.5,7.25-.01,7.68.56.49,6.26-.64,7.25.11v.05Z"/>
    <path d="M513.51,133.34c.39,2.08-.55,12.7,0,13.15.48.4,5.34-.85,6.84,1.03,1.49,1.86-.08,8.3.53,8.83.53.47,9.32-.48,9.83,0,.5.44-.51,7.23-.01,7.68.49.43,11.34-.32,13.52,0l-1.23-6.56c1.35-.25,5.77.33,6.15,0,.39-.35.39-9.52,0-9.87-.49-.42-6.9.43-7.38,0-.5-.43.51-7.23.01-7.68-.44-.4-8.02.29-9.85,0v-6.58c2.47.39,15.42-.5,15.98,0,.51.46-.55,7.19,0,7.66.41.35,9.07,2.18,9.81-1.63,2.44-12.67-3.31-6.22-7.2-8.37-2.73-1.51.75-7.47-3.24-7.56-1.68-.04-14.54.91-15.18,1.28-2.41,1.37,1.99,8.97-7.97,6.27-3.36-.91-.06-6.21-2.18-7.37-.96-.54-13.16-.36-14.61.4-2.58,1.37-1.85,6.67-3.58,7.75-1.92,1.19-6.98.07-7.45.48-.31.27-.23,6.74.54,7.75,1.08,1.39,8.91,1.35,9.28,1.02,1.33-1.24-2.41-10.26,7.39-7.66h0ZM531.93,149.76h7.39v5.5h-7.39v-5.5Z"/>
    <path d="M608.1,179.36h-7.38c-.29-1.48.41-7.3,0-7.67-.6-.55-14.69,0-17.2,0-.44,0,.78-6.06-.54-7.74-1.58-2.01-7.57-.57-8.07-1.02-1.32-1.17,4-9.99-8.58-6.58,1.23-9.39-1.48-9.35-11.07-8.76-.34,7.36-1.42,11.11,8.61,9.86,2.58,8.2-5.56,4.95-7.25,6.69-.31.33-.48,8.34-.14,8.66.61.54,6.98-.71,8.44.14,1.08.62.85,6.01,2.54,7.05,1.73,1.06,5.84.14,6.23.47.51.43-1.11,5.78,1.14,7.2,2.53,1.59,16.43-.32,17.29.47.38.34-.28,4.27,0,5.48.69.64,13.62-1.93,15.17-3.2,2.07-1.7,1.64-9.58,2.04-9.93.53-.46,5.31.83,6.81-1.04,5.84-7.28-11.36-15.22-8.05-.07h.01Z"/>
    <path d="M627.75,188.11c-.51-.47-14.23-.47-14.76,0-.59.53.75,6.64-.13,7.55-.7.72-10.17.15-5.44,6.74,1.72,2.38,6.16-1.27,9.77,1.12,3.01,2,1.95,7.22,3.98,7.64,3.26.68,20.49-.79,21.29-.05.28.26-.31,5.17,1.13,6.97.63.78,5.36,2.02,6.06,1.68,2.84-1.37,3.46-15.61,2.66-16.33-.5-.44-8.12.46-8.61,0-.51-.46.55-7.19,0-7.67-1.11-.96-15.39-.6-15.96-1.1-.48-.42.49-6.15,0-6.58h-.01Z"/>
    <path d="M425.58,109.38c1.85-1.19-1.75-10.35,7.3-7.67,6.18,1.83-5.17,21.91,11.84,17.4.33-1.62-.45-8.38,0-8.78.5-.44,8.1.46,8.61,0,.43-.39-.31-7.15,0-8.76h-17.2l1.23-8.76h-28.25v16.43c4.66-.36,12.45,2.73,16.48.13h-.01Z"/>
    <path d="M410.94,86.25h25.18c-.55-2.99,1.28-12.25-1.15-13.76-3.95.28-23.19-2.08-24.73-1.11-2.09,1.33-1.8,14.87.7,14.87Z"/>
    <path d="M400.49,110.34h-25.79c.58,3.16-1.32,13.31,1.15,14.85,1.82,1.13,23.37.43,24.58-.68.71-.65-.39-11.9.06-14.19h0Z"/>
    <path d="M392.51,79.68c.41,0,7.59-2.03,7.83-2.33.38-.49.48-4.97.23-5.75-.44-1.4-4.63-.67-5.92-2.03-1.59-1.68.35-4.89-3.31-5.29-16.43-1.79-17.72,1.27-16.63,15.4h17.81Z"/>
    <path d="M460.79,90.09c0-5.62-4.73-2.75-7.52-4.35-1.78-1.02-1.74-5.41-2.57-5.92-5.95-3.58-9.22,9.79-6.68,13.07.99,1.27,16.78,3.49,16.77-2.81h-.01Z"/>
    <path d="M486.97,171.58c-1.9,1.35-2.58,7.68-1.57,8.74,1.08,1.13,8.73,1.54,10.61-.14,5.16-4.63-3.04-12.86-9.03-8.59h-.01Z"/>
    <path d="M494.75,155.61c-10.75-3.09-11.45,9.13-3.9,9.42,10.43.4,7.19-8.46,3.9-9.42h0Z"/>
    <path d="M486.47,195.79h9.83v-8.78c-9.39-.83-10.77.37-9.83,8.78Z"/>
    <path d="M506.27,148.81c-2.48,6.45.71,9.98,8.46,8.64.64-7.01.43-10.06-8.46-8.64Z"/>
    <rect x="637.56" y="230.82" width="6.16" height="5.48"/>
    <path d="M291.18,110.34c-8.99-.35-18.18-2.56-27.03,0v23h25.79l1.23-23h.01Z"/>
    <path d="M281.34,80.77c-1.67.25-8.23-.36-8.61,0-.29.28.33,3.42-.16,4.76-1.25,3.47-13.27,1.18-17.02,1.81v15.33h25.79s0-21.9,0-21.9Z"/>
    <path d="M321.8,135.95c.68-1.72-3.9-15-5-15.61-2.43-1.35-11.94,3.57-15.82,2.05-1.59,1.39,6.79,22.73,8.2,23.04,10.8,2.38,6.64-6.27,7.94-7.57.51-.53,3.86.16,4.67-1.91h0Z"/>
    <path d="M288.71,156.89v-15.88h-17.81c-2.49,0-2.57,14.89-1.3,16.5,1.43,1.82,19.11,1.69,19.11-.62Z"/>
    <path d="M238.35,118.02c.45-.42-.78-4.97.53-6.65,1.34-1.74,15.26.49,10.25-7.37-1.77-2.79-15.06-3.26-18.16-1.88-3.42,1.52-1.7,5.55-2.99,7.19-.95,1.2-11.35,1.12-5.72,8.06.66.82,15.54,1.17,16.11.64h0Z"/>
    <path d="M313.82,111.51c1.08,1.37,7.73,1.34,8.07,1.03.44-.41-.93-4.9,1.14-6.1,1.75-1.02,5.84-.14,6.23-.47.26-.22.16-6.14-.14-6.45-1.2-1.27-14.37-1.81-15.66.05-.59.85-.44,10.93.36,11.96h0Z"/>
    <path d="M229.75,691.94c-.46-.41.49-6.16.01-6.58-.88-.78-14.72,1.12-17.29-.47-2.38-1.47-.54-7.75-1.14-8.29-.49-.44-8.12.46-8.61,0-.5-.44.51-7.25.01-7.68-.48-.42-6.9.43-7.38,0-.55-.48.64-6.98-.06-7.62-.78-.71-18.9-1.77-19.59-1.16.13,2.98-.51,15.99,1.37,17.41,1.13.85,7.23-.62,8.34.23.76.58,1.09,7.22,1.42,7.49,3.17,2.75,29.52-6.01,24.51,7.73-7.94-.78-9.48.53-8.61,7.67h17.2v7.67h8.59c.05-.48,3.28-6.94,3.65-7.16,1.48-.91,4.33-.51,6.18-.5,2.88-12.22-7.19-7.52-8.61-8.75h0Z"/>
    <path d="M383.29,746.69c-2.04.04-5.7-.68-8.59,0-.31-3.45,1.68-7.97-3.07-8.76-6.68-1.11-7.45,2.96-6.76-6.57h-17.2c-.29,4.1-3.12,21.73-.08,23.62,3.27,2.03,29.7-.54,35.7.48-.13-2.91.09-5.85,0-8.76h0Z"/>
    <path d="M125.1,582.92c-3.77-2.42-19.23,2.01-24.65.62v16.43c12.24-.62,7.32-.19,8.58,7.04.24,1.37,4.68.33,6.16.63.11-1.76-.66-4.98,1.15-6.09,3.49-.15,7.88-1.62,11.12-1.58.18-3.01-.06-15.57-2.38-17.05h.01Z"/>
    <path d="M459.46,709.46l-24.58-1.11c-.41,2.21.59,13.75.01,14.25-.46.41-6.79-.34-8.61,0-.84.15-1.35.08-1.23,1.1,1.93,1.67.84,8.41,1.23,8.76,1.4,1.3,19.74-1.54,23.35-1.1.63-3.13-1.73-14.39,1.99-15.25,3.7-.86,7.95,3.62,7.83-6.65h0Z"/>
    <path d="M520.19,753.33c11.76,1.46,4.9-4.85,6.81-6.64.18-.16,3.78.02,4.92,0v-15.33c-8.15.21-16.41-.15-24.56,0v15.33c0,.43,8.79-.58,9.7.12,1.3,1-.5,6.07,3.13,6.52h0Z"/>
    <path d="M137.62,628.4l.71,7.69h14.04v-7.69c-.41.01-.81,0-1.23,0-4.48.11-9.03-.07-13.52,0h-.01Z"/>
    <path d="M151.14,621.83c-.04-.72.06-1.46,0-2.19l-25.06-.02c-1.34-.13-.63,1.41-.74,2.21h25.8Z"/>
    <path d="M427.03,696.49c-.06.72.05,1.46,0,2.19h17.19c.48-.99-4.63-2.16-4.91-2.19-3.87-.39-8.33.27-12.29,0h.01Z"/>
    <path d="M125.35,568.71c1.05,5.04,12.44,1.9,17.21,2.74-.31-1.73.43-9.51,0-9.86-.61-.5-6.08,1.24-7.2-1.8-.96-2.6.54-14.04-.16-14.63-.68-.58-7.25,1.42-8.43-1.79-.98-2.64.55-14-.16-14.63-.5-.44-8.12.46-8.61,0-.75-.68,1.74-7.52-2-8.61-2.18-.64-13.53-.56-14.64.88-4.87,6.24,5.2,8.86,8.03,11.63,1.25,1.23,1.05,3.29,1.43,3.59,1.03.84,5.45-.28,5.97.16.59.49-.95,6.95.53,8.83,1.59,2.02,7.54.56,8.07,1.02.39.34-.28,6.2,0,7.68h-8.61v7.67c12.54-.71,7.14.08,8.61,7.12h-.03Z"/>
    <path d="M113.43,580c4.21-1.1,4.05-10.13,3.32-10.74-.48-.4-5.34.85-6.84-1.03-1.78-2.22.36-14.62-.53-15.42-.49-.43-8.17.44-8.61.01-.48-.46.69-4.08-.16-5.33-.46-.68-5.15-1.52-6.41-1.17-3.49.96-1.42,7.04-2,7.6-.46.43-8.12-.46-8.61-.01-.58.51-.24,13.44.21,14.61,1.77,4.67,12.05,1.76,14.62,3.4,2.24,1.41.05,6.38,2.29,7.82,1.38.88,10.73.77,12.73.26h-.01Z"/>
    <path d="M159.74,586.79c0-.33-6.94.39-7.37,0-.3-.27.18-6.63-1.42-7.52-1.92-1.07-12.55.47-15.8-.15v16.43c9.29-.81,7.49.15,7.37,7.67h17.2v-16.43h.01Z"/>
    <path d="M73.76,562.68h-6.15c2.77,10.77-7.3,6.56-8.61,7.67-.35.3-.36,8.47,0,8.78.61.5,6.08-1.24,7.2,1.8,1.2,3.21-1.75,13.56,2.15,14.57,7.03,1.83,6.43-7.45,7.75-8.24,3.67-2.19,10.67,2.72,8.69-8.13-14.73,2.08-10.67-7.19-11.06-16.43h.01Z"/>
    <path d="M92.19,536.4c-.49-.42-6.9.43-7.38,0-.6-.54.8-6.13-.16-7.52-.84-1.2-8.74-2.22-9.66.39-1.22,3.49.88,11.73,0,15.88h17.2c-.3-1.62.44-8.39,0-8.76h0Z"/>
    <path d="M67.61,546.26v-16.98c0-1.32-8.97-4.53-9.88,2.14-1.13,8.17-2.1,17.5,9.88,14.84Z"/>
    <path d="M49.19,561.6h8.61v-8.78c-8.88-1.3-8.81,1.66-8.61,8.78Z"/>
    <path d="M194.14,644.83c-2.92,12.21,7.16,7.5,8.61,8.75.49.42-.51,7.23-.01,7.68.5.44,8.12-.46,8.61,0,.69.61-1.08,7.46.7,7.69h7.9c-.96-9.63,0-7.81,9.82-7.68l-.16-7.53c-2.39-1.87-6.79.46-8.51-.6-2.37-1.45-.6-7.8-1.18-8.31-.9-.82-22.22.62-25.79,0h.01Z"/>
    <path d="M254.98,669.98c-2.12-2.86-23.9-3.58-25.84.04-5,9.29,5.24,5.39,7.7,7.94,1.48,1.54,1.1,7.4,1.52,7.4h17.2c-.74-3.51,1.29-12.87-.56-15.38h-.01Z"/>
    <path d="M195.37,619.64l-9.32,1.03c-1.74,2.12,1.29,6.09.71,6.64-.29.28-5.96.15-7.94,2.24-2.14,2.24-3.57,8.99-3.11,12.01,2.59-.07.98-5.04,3.26-5.52,7.18-1.51,27.66,6.21,24.99-4.87-1.18-4.88-7.63-1.91-8.61-2.75-.43-.36.33-7.16.01-8.78h0Z"/>
    <path d="M167.85,660.27c2.89-2.05,4.08-11.76,1.13-14.38-1.7-1.49-14.89-1.7-16.68-.58-2.13,1.32-1.45,13.66.3,14.67,1.73.99,13.09,1.83,15.27.29h-.01Z"/>
    <path d="M169.56,677.69c-2.35.01-7.67.81-8.43,2.88-.19.53-1.34,9.92-1.33,10.91.05,4.29,7.84,2.01,8.54,2.63.46.4-.49,6.16-.01,6.58.4.36,6.93-.26,8.61,0v-15.33c-9.29.79-7.48-.14-7.38-7.67h0Z"/>
    <path d="M133.94,654.14v22.45h7.37v-24.1c-1.75-.29-7.37-.04-7.37,1.65h0Z"/>
    <path d="M330.47,731.37c-.51-.47,1.11-5.78-1.14-7.2-1.15-.72-24.64-.88-27.77-.53-5.82.63-4.13,3.24-4.25,7.73,12.04-2.28,4.92,4.97,8.52,7.19,1.89,1.17,7,.07,7.47.47.48.41-.49,7.25,0,7.68.86.77,21.12-.57,24.56,0,.73-2.4,2.12-14.56,1.24-15.35-.5-.44-8.14.44-8.61.01h-.02Z"/>
    <path d="M304.69,746.68c-3.59-.6-13.58,1.06-16.06-.47-2.38-1.47-.54-7.75-1.14-8.29-.95-.86-25.99-.21-27.11.48-1.69,1.05-1.75,14.57-.61,16.02,1.55,1.98,15.46.7,16.5-.22,2.3-2.07-2.58-10.06,8.77-7.53,1,8.75-4.77,18.81,9.83,16.44-3.16-12.68,8.23-7.36,9.83-8.76.4-.35-.28-6.18,0-7.68h-.01Z"/>
    <path d="M346.57,718.33c1-1.05,9.85.54,9.67-7.3-.1-4.34-7.84-2.02-8.57-2.65-.48-.41.49-7.25,0-7.68-.86-.77-21.07,0-24.56,0-.81,0-3.88,11.77-2.28,14.08,3.97,2.66,14.35-.02,17.11,1.73,2.86,1.82-1.98,10.48,8.52,8.3.36-1.54-.63-5.68.13-6.48h-.01Z"/>
    <path d="M383.29,716.03c-.49-.43.49-7.23,0-7.67-.65-.58-15.68.43-18.43,0v15.33c0,.39,7.62.28,8.46,1.21,1.45,1.62-2.62,5.88,4.41,6.5,8.09.71,2.08-3.99,5.47-6.15,1.98-1.26,8.14,0,8.68-.47.35-.3.35-8.46,0-8.78-.5-.44-8.12.46-8.61,0h.01Z"/>
    <path d="M312.06,707.26c2.54-12.52,4.4-16.82-11.74-15.39-11.77,1.04-12.59,5.66-11.61,15.39h23.35Z"/>
    <path d="M323.11,760.93c-.46-.4.46-6.16,0-6.57-.6-.55-14.59.4-17.2,0,.53,2.45-.79,13.2.13,14.13,1.7,1.76,23.17,4.67,24.49-1.54,1.8-8.51-6.46-5.22-7.42-6.02h0Z"/>
    <path d="M260.46,731.36h9.83c2.59-10.98-12.49-10.85-9.83,0Z"/>
    <path d="M514.09,724.8c19.79,2.07,10.56-6.65,12.91-8.79.48-.43,11.34.06,13.52,0,.09-1.8-.46-4.29-.03-5.79.44-1.52,5.66-.76,3.16-7.41-.31-.82-1.99-3.23-2.52-3.23h-29.49c-.34,0-2.86,1.12-3.12,1.84,2.19,7.94-7.62,21.98,5.55,23.36h.01Z"/>
    <path d="M498.83,738.41c-1.23-.77-27.42-.91-29.92-.26-5.1,1.33-2.72,7.99-3.31,8.55-.44.41-6.9-.43-7.38-.01-.41.36-.21,9.2.18,10.26.95,2.57,13.52,2.53,17.04,2.89.26-1.2-.36-5.16,0-5.48.6-.55,14.58.41,17.2,0,.28-1.49-.4-7.34,0-7.67.6-.5,6.06,1.24,7.2-1.8.59-1.55.59-5.51-.99-6.49h-.01Z"/>
    <path d="M468.36,722.32c-.83,2.92-.11,6.08-.3,9.04h22.11c.39,0,2.28-6.24,2.57-6.48,1.13-.9,8.49,2.32,8.49-.65v-15.88h-25.79c3.16,8.25-5.52,8.48-7.06,13.96h-.01Z"/>
    <path d="M549.12,760.93h-31.33c-2.86,0,.53,12.5-.61,15.33h22.72c2.4,0,1.39-5.51,2.02-6.41.78-1.13,6.81-1.02,7.14-1.31.6-.54-.28-6.03.06-7.62Z"/>
    <path d="M444.11,757.65c2.74,0,2.74-14.24,0-14.24h-25.18v14.24h25.18Z"/>
    <path d="M447.79,776.26c-6.29-1.75-22.58,1.3-30.1,0v7.67c3.91-.58,30.84-.07,31.94-1.1.6-.55.15-6.02-1.85-6.57h.01Z"/>
    <path d="M669.5,667.83c.08-2.54-.03-5.11,0-7.67-3.16,1.61-14.56.98-16.58-1.09-3.93-4.01.28-7.05.69-10.36.28-2.23.45-11.14-1.21-12.17-1.1-.68-7.88-.86-8.54-.36-.8.61-.9,6.84-1.53,7.4-.78.7-8.02.33-8.51,1.91-.49,1.62.63,15.05,1.37,15.7,2.58,2.24,20.13-4.85,17.14,6.63-6.09-.2-11.27-1.16-9.82,5.97,1.2,5.9,8.29,2.98,9.7,3.99.59.43.86,5.88,1.48,6.35.34.26,6.99.35,7.25.13.51-.46-1.11-5.81,1.14-7.2,1.89-1.17,7-.07,7.47-.47.35-.3-.06-7.08,0-8.76h-.03Z"/>
    <path d="M734.61,344.72c.51.46-.88,5.95.53,7.75,1.58,2.02,7.54.56,8.07,1.02,2.43,2.1-5.17,17.05,5.52,16.52,7.73-.37,3.11-11.38,4.3-16.52-.01-.79-.43-.96-1.23-1.1-1.64-.27-6.95.36-7.38,0-.51-.43.53-8.32.01-8.78-.5-.44-8.14.44-8.61.01-1.4-1.28,3.86-10.28-9.82-7.68-2.94,12.17,7.2,7.53,8.61,8.76h0Z"/>
    <path d="M709.99,339.6c.35,1.32,8.2,2.49,9.88,4-.01-.09,1.15-.71,1-1.47-.73-3.48-6.66-2.6-7.08-2.96-.96-.84.6-20.76-.06-24.05-1.23-.05-2.46.04-3.68,0,1.24,6.79-1.68,18.4-.05,24.47h-.01Z"/>
    <path d="M687.14,260.82h-11.07c.31,1.73-.43,9.5,0,9.87.4.35,7.95-.63,9.83,1.09,1.14.11,1.05-.35,1.23-1.1.65-2.73-.45-6.88,0-9.86h.01Z"/>
    <path d="M692.44,647.48c7.57,1.32,6.9-2.09,7.37-7.67l-9.82,1.09c.03,1.58,2.24,5.24,2.46,6.57h0Z"/>
    <path d="M700.21,305.3l2.46,9.86c1.55-3.54,2.74-9.41-2.46-9.86Z"/>
    <path d="M750.61,345.29c.34,1.79,1.18,1.53,1.19,1.62,1.57-1.65,1.82-5.06,1.24-6.94-.38-1.21-2.32-.58-2.47-.72.26.23-.24,4.59.04,6.04h0Z"/>
    <path d="M750.58,339.26c-.91-.82.48-3.55-6.14-2.19.24,4.64,4.78,1,6.14,2.19Z"/>
    <path d="M773.92,384.16c-1.35-.37-2.73-1.82-4.91-1.1.14,3.22,1.57,3.28,4.91,1.1Z"/>
    <path d="M763.47,368.82l.63-1.09c-.25-.09-1.25-2.09-2.46-2.19-.18,1.37-3.97,3.9,1.84,3.28h-.01Z"/>
    <path d="M685.95,285.73c.8.07,1.64-.06,2.46,0l-1.23-2.19c0,.12-1.72,1.03-1.23,2.18h0Z"/>
    <path d="M635.12,700.69c.49-.42-.51-7.23-.01-7.68.43-.37,6.93.28,8.61,0v-7.68c-8.44-.09-9.51-1.7-8.59,6.58h-6.68c-1.75-.21-.04-5.99-.7-6.58-.35-.32-9.49-.32-9.85,0-.49.44.51,6.13,0,6.57-.33.28-8.07-.35-8.64,1.83-.36,1.4-.2,8.23.58,9.2,1.59,1.98,5.96.32,7.82,1.25,2,1,1.42,7.64,8.84,5.26-2.89-12.24,7.13-7.49,8.61-8.76h.03Z"/>
    <path d="M626.52,676.6l1.23-15.33h-18.43c-.29,1.49.41,7.32,0,7.67-.65.57-8.87-1.35-9.7,1.73-.31,1.16,1.88,11.16,1.79,13.63,13.29,1.73,5.89-4.84,7.9-6.58.61-.54,14.91-1.3,17.2-1.1h0Z"/>
    <path d="M584.74,685.35c.5-.44,8.1.46,8.61,0,.43-.37-.3-7.15,0-8.78-1.94.29-10.62-.4-11.07,0-.53.47.54,8.31.01,8.78-.56.5-13.52-.39-15.98,0,.68,3.21-1.18,12.11.54,14.32,1.55,1.98,16.63.98,17.75-.19,1-1.05-.6-13.48.13-14.13h.03Z"/>
    <path d="M587.13,722.12c1,.63,13.11.91,13.59.48.48-.43-.49-6.15,0-6.58.43-.39,8.03.29,9.85,0v-7.68c-9.85.13-10.76,1.94-9.83-7.67h-3.67c1.82,10.27-5.16,7.46-13.52,7.67-2.23,4.42,2.32,6.92,2.43,7.34.49,1.83-.83,5.15,1.18,6.43h-.03Z"/>
    <path d="M585.98,732.46v14.24c4.7-2.15,6.98,1.04,10.37,1.17,9.86.37,5.77-5.57,8.34-7.48,3.49-2.6,9.11,1.95,7.08-7.92h-25.79Z"/>
    <path d="M626.51,716.03v14.24h17.2c.41,0-1.04-5.83,1.15-7.19,4.06-2.51,9.21,3.66,7.45-7.05h-25.8Z"/>
    <path d="M718.63,595.54c-.45.42.78,4.97-.53,6.65-.94,1.2-5.89,1.53-6.73.91-1.15-.86-1.85-11.56-1.16-13.42,1.18-3.21,7.75-1.21,8.43-1.79.35-.3.35-8.46,0-8.78-.5-.44-8.1.46-8.61,0-.44-.4.33-7.15,0-8.78-13.3-1.87-6.34,5.99-7.87,7.71-1.35,1.53-7.27,1.34-7.94,2.29-.46.64-.79,14.68-.16,15.19.41.34,4.55-.56,6.23.47,2.29,1.41.41,6.16,1.27,7.08.5.54,6.58.76,7.11,1.32.86.9-.46,7.05.13,7.56.6.54,7.68-1.09,9.29,1.02,1.3,1.7.09,6.24.53,6.65.3.28,8.32.28,8.61,0,.89-.84,1.94-21.47.69-23.07-1.1-1.4-8.97-1.34-9.29-1.03h.01Z"/>
    <path d="M716.18,641.55c-.48.41-6.91-.42-7.38,0-.7.62.51,14.95,0,17.53h15.97l1.23-26.29h-9.85c-.31,1.62.45,8.39.01,8.78h.01Z"/>
    <path d="M734.61,570.36c-.26.23-5.96-.02-7.38,0,.05,5.82-.04,11.7,0,17.53h15.98l1.23-26.29c-14.15-2.85-8.3,7.46-9.82,8.78h-.01Z"/>
    <path d="M727.24,545.16h-8.61c-.31,1.62.45,8.38.01,8.78-.5.44-8.1-.46-8.61,0-.35.32-.35,8.46,0,8.78.5.44,8.12-.46,8.61,0,.5.44-.5,7.25-.01,7.68.31.27,7.04,0,8.61,0-.08-8.38.05-16.82,0-25.19v-.04Z"/>
    <path d="M684.24,620.19v-15.88c-9.42-1.95-7.99,6.51-7.43,12.65.74,8.1,7.43,4.45,7.43,3.23h0Z"/>
    <path d="M711.35,622.36c-.65-5.1-7.64-4.99-9.38-2.78-.79,1.02-.99,7.8-.38,8.68,1.4,2.02,10.73,1.75,9.76-5.89h0Z"/>
    <path d="M776.37,447.69h-7.38c2.07,14.11-3.8,6.23-8.67,9.24-2.1,1.3-1.47,14.84.25,15.8,1.93,1.09,12.54-.47,15.8.15v-25.19h0Z"/>
    <path d="M767,480.67c-10.84-3.21-6.31,17.73-5.21,18.34,1.64.91,6.3.34,7.04-1.65.86-2.32.96-15.87-1.83-16.7Z"/>
    <path d="M743.75,465.16c-1.14,1.51-1.1,13.86.6,14.91,1.54.96,6.98.93,8.14-.55.84-1.07.91-13.64.4-14.19-.56-.6-7.8-1.95-9.14-.18Z"/>
    <path d="M743.2,456.46h9.85c3.46-22.42-13.09-21.8-9.85,0Z"/>
    <path d="M776.3,494.17c-.68,6.07-1.6,13.34,7.44,11.56v-17.53c-5.91-.37-6.9,1.18-7.44,5.96Z"/>
    <path d="M760.4,424.69h8.61v-24.11h-8.62c.06,8.02-.06,16.08,0,24.1h.01Z"/>
    <path d="M761.69,380.28c-.76-5.61-4.7-3.5-9.88-3.78v15.33c11.3,4.26,10.99-3.49,9.88-11.55h0Z"/>
    <path d="M722.81,329.34c5.16-.29,6.26-5.61,4.26-8.55-.65-.96-9.11-1.74-9.66-1.26.39,5.23-2.43,10.25,5.4,9.8h0Z"/>
  </g>
</svg>